<svg version="1.2" xmlns="http://www.w3.org/2000/svg" viewBox="0 0 100 100" width="500" height="500"><style>.a{fill:#fff;stroke:#333;stroke-width:4}.b{fill:#f00}.c{fill:#00f}.d{fill:#008000}.e{fill:#ff0}.f{fill:#800080}</style><path fill-rule="evenodd" class="a" d="m14 2h72c6.6 0 12 5.4 12 12v72c0 6.6-5.4 12-12 12h-72c-6.6 0-12-5.4-12-12v-72c0-6.6 5.4-12 12-12z"/><path fill-rule="evenodd" class="b" d="m25 35c-5.5 0-10-4.5-10-10 0-5.5 4.5-10 10-10 5.5 0 10 4.5 10 10 0 5.5-4.5 10-10 10z"/><path fill-rule="evenodd" class="c" d="m75 35c-5.5 0-10-4.5-10-10 0-5.5 4.5-10 10-10 5.5 0 10 4.5 10 10 0 5.5-4.5 10-10 10z"/><path fill-rule="evenodd" class="d" d="m50 60c-5.5 0-10-4.5-10-10 0-5.5 4.5-10 10-10 5.5 0 10 4.5 10 10 0 5.5-4.5 10-10 10z"/><path fill-rule="evenodd" class="e" d="m25 85c-5.5 0-10-4.5-10-10 0-5.5 4.5-10 10-10 5.5 0 10 4.5 10 10 0 5.5-4.5 10-10 10z"/><path fill-rule="evenodd" class="f" d="m75 85c-5.5 0-10-4.5-10-10 0-5.5 4.5-10 10-10 5.5 0 10 4.5 10 10 0 5.5-4.5 10-10 10z"/></svg>