<svg version="1.2" xmlns="http://www.w3.org/2000/svg" viewBox="0 0 300 300" width="500" height="500"><style>.a{opacity:.15}.b{fill:#ffd966;stroke:#b8860b;stroke-width:3}.c{fill:#6b4c00}.d{fill:#ff6f61;stroke:#9b2b20;stroke-width:3}.e{fill:#6b1f17}.f{fill:#2196f3;stroke:#1565c0;stroke-width:3}.g{fill:#0d47a1}.h{fill:#4caf50;stroke:#2e7d32;stroke-width:3}.i{fill:#1b5e20}.j{fill:#fff;stroke:#333;stroke-width:3}.k{fill:#333}.l{fill:#ff6f61}.m{fill:#4caf50}.n{fill:#2196f3}.o{fill:#ffd966}</style><path fill-rule="evenodd" class="a" d="m50 288c-13.8 0-25-3.6-25-8 0-4.4 11.2-8 25-8 13.8 0 25 3.6 25 8 0 4.4-11.2 8-25 8z"/><path fill-rule="evenodd" class="a" d="m116 295c-13.8 0-25-3.6-25-8 0-4.4 11.2-8 25-8 13.8 0 25 3.6 25 8 0 4.4-11.2 8-25 8z"/><path fill-rule="evenodd" class="a" d="m97 246c-13.8 0-25-3.6-25-8 0-4.4 11.2-8 25-8 13.8 0 25 3.6 25 8 0 4.4-11.2 8-25 8z"/><path fill-rule="evenodd" class="a" d="m206 285c-13.8 0-25-3.6-25-8 0-4.4 11.2-8 25-8 13.8 0 25 3.6 25 8 0 4.4-11.2 8-25 8z"/><path fill-rule="evenodd" class="a" d="m210 252c-13.8 0-25-3.6-25-8 0-4.4 11.2-8 25-8 13.8 0 25 3.6 25 8 0 4.4-11.2 8-25 8z"/><path fill-rule="evenodd" class="a" d="m255 295c-13.8 0-25-3.6-25-8 0-4.4 11.2-8 25-8 13.8 0 25 3.6 25 8 0 4.4-11.2 8-25 8z"/><path fill-rule="evenodd" class="a" d="m60 217c-12.2 0-22-3.1-22-7 0-3.9 9.8-7 22-7 12.2 0 22 3.1 22 7 0 3.9-9.8 7-22 7z"/><path fill-rule="evenodd" class="a" d="m200 217c-12.2 0-22-3.1-22-7 0-3.9 9.8-7 22-7 12.2 0 22 3.1 22 7 0 3.9-9.8 7-22 7z"/><path fill-rule="evenodd" class="b" d="m19.8 195.7l34.8-9.3c6.4-1.8 13 2 14.7 8.4l9.3 34.8c1.8 6.4-2 13-8.4 14.7l-34.8 9.3c-6.4 1.8-13-2-14.7-8.4l-9.3-34.8c-1.8-6.4 2-13 8.4-14.7z"/><path fill-rule="evenodd" class="c" d="m31.9 217.3c-3.2 0.9-6.5-1-7.4-4.2-0.9-3.2 1-6.5 4.3-7.4 3.2-0.8 6.4 1.1 7.3 4.3 0.9 3.2-1 6.5-4.2 7.3z"/><path fill-rule="evenodd" class="c" d="m61.2 234.3c-3.2 0.8-6.4-1.1-7.3-4.3-0.9-3.2 1-6.5 4.2-7.3 3.2-0.9 6.5 1 7.4 4.2 0.9 3.2-1 6.5-4.3 7.4z"/><path fill-rule="evenodd" class="d" d="m118.3 175.7l33.9 12.3c6.2 2.2 9.4 9.1 7.1 15.3l-12.3 33.9c-2.2 6.2-9.1 9.4-15.3 7.1l-33.9-12.3c-6.2-2.2-9.4-9.1-7.1-15.3l12.3-33.9c2.2-6.2 9.1-9.4 15.3-7.1z"/><path fill-rule="evenodd" class="e" d="m115.8 200.3c-3.1-1.2-4.7-4.6-3.6-7.7 1.1-3.2 4.6-4.8 7.7-3.6 3.1 1.1 4.7 4.6 3.6 7.7-1.2 3.1-4.6 4.7-7.7 3.6z"/><path fill-rule="evenodd" class="e" d="m122.9 215.6c-3.1-1.1-4.7-4.5-3.5-7.7 1.1-3.1 4.5-4.7 7.7-3.5 3.1 1.1 4.7 4.5 3.5 7.7-1.1 3.1-4.5 4.7-7.7 3.5z"/><path fill-rule="evenodd" class="e" d="m130.1 231c-3.1-1.1-4.7-4.6-3.6-7.7 1.2-3.1 4.6-4.7 7.7-3.6 3.1 1.2 4.7 4.6 3.6 7.7-1.1 3.2-4.6 4.8-7.7 3.6z"/><path fill-rule="evenodd" class="f" d="m177.1 193.6l35.4-6.3c6.5-1.1 12.8 3.2 13.9 9.8l6.3 35.4c1.1 6.5-3.2 12.8-9.8 13.9l-35.4 6.3c-6.5 1.1-12.8-3.2-13.9-9.8l-6.3-35.4c-1.1-6.5 3.2-12.8 9.8-13.9z"/><path fill-rule="evenodd" class="g" d="m187.1 216.2c-3.2 0.6-6.3-1.6-6.9-4.9-0.6-3.3 1.6-6.4 4.9-6.9 3.2-0.6 6.3 1.6 6.9 4.8 0.6 3.3-1.6 6.4-4.9 7z"/><path fill-rule="evenodd" class="g" d="m210.8 212c-3.3 0.6-6.4-1.6-7-4.9-0.6-3.2 1.6-6.3 4.9-6.9 3.3-0.6 6.4 1.6 6.9 4.9 0.6 3.2-1.6 6.3-4.8 6.9z"/><path fill-rule="evenodd" class="g" d="m191.3 239.8c-3.3 0.6-6.4-1.6-6.9-4.9-0.6-3.2 1.6-6.3 4.8-6.9 3.3-0.6 6.4 1.6 7 4.9 0.6 3.2-1.6 6.3-4.9 6.9z"/><path fill-rule="evenodd" class="g" d="m214.9 235.6c-3.2 0.6-6.3-1.6-6.9-4.8-0.6-3.3 1.6-6.4 4.9-7 3.2-0.6 6.3 1.6 6.9 4.9 0.6 3.3-1.6 6.4-4.9 6.9z"/><path fill-rule="evenodd" class="g" d="m201 225.9c-3.2 0.6-6.3-1.6-6.9-4.9-0.6-3.2 1.6-6.3 4.9-6.9 3.2-0.6 6.3 1.6 6.9 4.9 0.6 3.2-1.6 6.3-4.9 6.9z"/><path fill-rule="evenodd" class="h" d="m247.5 187.3l35.4 6.3c6.6 1.1 10.9 7.4 9.8 13.9l-6.3 35.4c-1.1 6.6-7.4 10.9-13.9 9.8l-35.4-6.3c-6.6-1.1-10.9-7.4-9.8-13.9l6.3-35.4c1.1-6.6 7.4-10.9 13.9-9.8z"/><path fill-rule="evenodd" class="i" d="m249.2 212c-3.2-0.6-5.4-3.7-4.8-6.9 0.5-3.3 3.6-5.5 6.9-4.9 3.3 0.6 5.5 3.7 4.9 6.9-0.6 3.3-3.7 5.5-7 4.9z"/><path fill-rule="evenodd" class="i" d="m272.9 216.2c-3.3-0.6-5.5-3.7-4.9-7 0.6-3.2 3.7-5.4 6.9-4.8 3.3 0.5 5.5 3.6 4.9 6.9-0.6 3.3-3.7 5.5-6.9 4.9z"/><path fill-rule="evenodd" class="i" d="m245.1 235.6c-3.3-0.5-5.5-3.6-4.9-6.9 0.6-3.3 3.7-5.5 6.9-4.9 3.3 0.6 5.5 3.7 4.9 7-0.6 3.2-3.7 5.4-6.9 4.8z"/><path fill-rule="evenodd" class="i" d="m268.7 239.8c-3.3-0.6-5.5-3.7-4.9-6.9 0.6-3.3 3.7-5.5 7-4.9 3.2 0.6 5.4 3.7 4.8 6.9-0.5 3.3-3.6 5.5-6.9 4.9z"/><path fill-rule="evenodd" class="j" d="m66.2 114.4l35.2-7.5c6.5-1.4 12.8 2.8 14.2 9.3l7.5 35.2c1.4 6.5-2.8 12.8-9.3 14.2l-35.2 7.5c-6.5 1.4-12.8-2.8-14.2-9.3l-7.5-35.2c-1.4-6.5 2.8-12.8 9.3-14.2z"/><path fill-rule="evenodd" class="k" d="m77 136.6c-3.2 0.7-6.4-1.3-7.1-4.6-0.7-3.2 1.4-6.4 4.6-7.1 3.3-0.7 6.4 1.4 7.1 4.6 0.7 3.3-1.3 6.4-4.6 7.1z"/><path fill-rule="evenodd" class="k" d="m79.5 148.4c-3.2 0.7-6.4-1.4-7.1-4.7-0.7-3.2 1.4-6.4 4.6-7.1 3.3-0.7 6.4 1.4 7.1 4.6 0.7 3.3-1.3 6.5-4.6 7.2z"/><path fill-rule="evenodd" class="k" d="m82 160.1c-3.2 0.7-6.4-1.4-7.1-4.6-0.7-3.3 1.4-6.4 4.6-7.1 3.3-0.7 6.4 1.3 7.1 4.6 0.7 3.2-1.3 6.4-4.6 7.1z"/><path fill-rule="evenodd" class="k" d="m100.5 131.6c-3.3 0.7-6.4-1.3-7.1-4.6-0.7-3.2 1.3-6.4 4.6-7.1 3.2-0.7 6.4 1.4 7.1 4.6 0.7 3.3-1.4 6.4-4.6 7.1z"/><path fill-rule="evenodd" class="k" d="m103 143.4c-3.3 0.7-6.4-1.4-7.1-4.6-0.7-3.3 1.3-6.5 4.6-7.2 3.2-0.7 6.4 1.4 7.1 4.7 0.7 3.2-1.4 6.4-4.6 7.1z"/><path fill-rule="evenodd" class="k" d="m105.5 155.1c-3.3 0.7-6.4-1.4-7.1-4.6-0.7-3.3 1.3-6.4 4.6-7.1 3.2-0.7 6.4 1.3 7.1 4.6 0.7 3.2-1.4 6.4-4.6 7.1z"/><path fill-rule="evenodd" class="j" d="m222.2 95.9l34.2 11.1c6.3 2.1 9.7 8.8 7.7 15.2l-11.1 34.2c-2.1 6.3-8.8 9.7-15.2 7.7l-34.2-11.1c-6.3-2.1-9.7-8.8-7.7-15.2l11.1-34.2c2.1-6.3 8.8-9.7 15.2-7.7z"/><path fill-rule="evenodd" class="k" d="m227.8 136.7c-3.6-1.2-5.7-5.2-4.5-8.9 1.2-3.6 5.2-5.7 8.9-4.5 3.6 1.2 5.7 5.2 4.5 8.9-1.2 3.6-5.2 5.7-8.9 4.5z"/><path fill-rule="evenodd" class="l" d="m70 74c-2.2 0-4-1.8-4-4 0-2.2 1.8-4 4-4 2.2 0 4 1.8 4 4 0 2.2-1.8 4-4 4z"/><path fill-rule="evenodd" class="m" d="m110 91c-3.3 0-6-2.7-6-6 0-3.3 2.7-6 6-6 3.3 0 6 2.7 6 6 0 3.3-2.7 6-6 6z"/><path fill-rule="evenodd" class="m" d="m276 162c-3.3 0-6-2.7-6-6 0-3.3 2.7-6 6-6 3.3 0 6 2.7 6 6 0 3.3-2.7 6-6 6z"/><path fill-rule="evenodd" class="m" d="m175 166c-3.3 0-6-2.7-6-6 0-3.3 2.7-6 6-6 3.3 0 6 2.7 6 6 0 3.3-2.7 6-6 6z"/><path fill-rule="evenodd" class="m" d="m133 39c-3.3 0-6-2.7-6-6 0-3.3 2.7-6 6-6 3.3 0 6 2.7 6 6 0 3.3-2.7 6-6 6z"/><path fill-rule="evenodd" class="m" d="m29 134c-3.3 0-6-2.7-6-6 0-3.3 2.7-6 6-6 3.3 0 6 2.7 6 6 0 3.3-2.7 6-6 6z"/><path fill-rule="evenodd" class="n" d="m140 64c-2.2 0-4-1.8-4-4 0-2.2 1.8-4 4-4 2.2 0 4 1.8 4 4 0 2.2-1.8 4-4 4z"/><path fill-rule="evenodd" class="l" d="m180 95c-2.8 0-5-2.2-5-5 0-2.8 2.2-5 5-5 2.8 0 5 2.2 5 5 0 2.8-2.2 5-5 5z"/><path fill-rule="evenodd" class="o" d="m190 78c-1.7 0-3-1.3-3-3 0-1.7 1.3-3 3-3 1.7 0 3 1.3 3 3 0 1.7-1.3 3-3 3z"/><path fill-rule="evenodd" class="o" d="m190 78c-1.7 0-3-1.3-3-3 0-1.7 1.3-3 3-3 1.7 0 3 1.3 3 3 0 1.7-1.3 3-3 3z"/><path fill-rule="evenodd" class="o" d="m281 116c-1.7 0-3-1.3-3-3 0-1.7 1.3-3 3-3 1.7 0 3 1.3 3 3 0 1.7-1.3 3-3 3z"/><path fill-rule="evenodd" class="o" d="m46 161c-1.7 0-3-1.3-3-3 0-1.7 1.3-3 3-3 1.7 0 3 1.3 3 3 0 1.7-1.3 3-3 3z"/><path fill-rule="evenodd" class="o" d="m47 45c-1.7 0-3-1.3-3-3 0-1.7 1.3-3 3-3 1.7 0 3 1.3 3 3 0 1.7-1.3 3-3 3z"/><path fill-rule="evenodd" class="m" d="m220 76c-3.3 0-6-2.7-6-6 0-3.3 2.7-6 6-6 3.3 0 6 2.7 6 6 0 3.3-2.7 6-6 6z"/><path fill-rule="evenodd" class="n" d="m253 91c-2.2 0-4-1.8-4-4 0-2.2 1.8-4 4-4 2.2 0 4 1.8 4 4 0 2.2-1.8 4-4 4z"/><path fill-rule="evenodd" class="n" d="m253 91c-2.2 0-4-1.8-4-4 0-2.2 1.8-4 4-4 2.2 0 4 1.8 4 4 0 2.2-1.8 4-4 4z"/><path fill-rule="evenodd" class="n" d="m30 73c-2.2 0-4-1.8-4-4 0-2.2 1.8-4 4-4 2.2 0 4 1.8 4 4 0 2.2-1.8 4-4 4z"/><path fill-rule="evenodd" class="n" d="m175 134c-2.2 0-4-1.8-4-4 0-2.2 1.8-4 4-4 2.2 0 4 1.8 4 4 0 2.2-1.8 4-4 4z"/><path fill-rule="evenodd" class="l" d="m130 114c-2.2 0-4-1.8-4-4 0-2.2 1.8-4 4-4 2.2 0 4 1.8 4 4 0 2.2-1.8 4-4 4z"/></svg>