<svg version="1.2" xmlns="http://www.w3.org/2000/svg" viewBox="0 0 750 500" width="750" height="500"><defs><clipPath clipPathUnits="userSpaceOnUse" id="cp1"><path d="m642.59 257.93c-30.16-55.53-67.74-76.32-67.74-76.32 0 0-15.77-4.45-38.04 0.22-14.93 3.14-33.25 10.1-49.95 26.31 0 0-17.04 14.16-10.49 37.07 6.54 22.91 44.44 88.28 27.78 154.5 0 0 55.34-27.33 104.13 0 0 0-1.55-72.98-10.78-136.47l21.37 31.86c16.33-17.58 23.72-37.17 23.72-37.17z"/></clipPath><clipPath clipPathUnits="userSpaceOnUse" id="cp2"><path d="m488.2 308.44c-3.15-12.11-1.84-24.63-5.83-37.15-2.24-6.74-4.08-13.68-6.65-20.26q-2.66 1.08-5.25 1.91-2.54 0.81-4.96 1.32c-24.32 5.08-47.65 1.57-66.64-4.29-26.83-8.27-44.99-21.22-44.99-21.22l-7.29 40.09c0 0 31.67 12.31 33.6 24.15 1.94 11.85-3.07 12.76 2.39 28.25 5.1 14.44-1.38 35.21-2.28 37.96q-0.1 0.31-0.11 0.32c0 0 52.06 28.25 106.74 16.86 0 0-3.02-14.2-3.33-31.76-0.21-11.64 0.77-24.75 4.6-36.18z"/></clipPath><clipPath clipPathUnits="userSpaceOnUse" id="cp3"><path d="m375.7 240.75c-11.99-20.12-8.78-73.44-6.16-75.64-4.71-1.75-26.03-8.08-36.75-11.08-1.75 12.39-0.57 14.82-12.64 20.45-5.33 2.63-4.38 1.25-9.75 0.78v1.14c-5 0.45-4.54 0.66-9.75-1.92-12.07-5.63-9.21-8.06-10.95-20.45-6.68 1.87-17.4 7.09-25.67 11.18-4.99 2.47-9.09 4.54-10.86 5.2 2.61 2.19 3.34-0.63 4.22 2.65 4.35 23.46 0.03 47.57-11.96 67.69 12.78 24.53 11.46 64.52 8.71 90.83-1.62 15.55-3.74 26.32-3.74 26.32 0 0 21.91 15.22 60 16.94v0.01q0.08 0 0.16-0.01 0.09 0.01 0.17 0.01v-0.01c24.67-1.12 42.55-7.89 52.09-12.53 5.18-2.52 7.91-4.41 7.91-4.41 0 0-9.35-70.82 2.94-111.29q0.93-3.06 2.03-5.86z"/></clipPath></defs><style>.a{fill:#6f87a8}.b{fill:none}.c{fill:#dfc0af}.d{fill:#343a5e}.e{fill:#2d3451}.f{fill:#005ece}.g{fill:#2b3356}.h{fill:#ff5c64}.i{fill:#ebcaab}.j{fill:#f7dec4}.k{fill:none;stroke:#fff;stroke-linecap:round;stroke-miterlimit:10;stroke-width:2.1}.l{fill:none;stroke:#fff;stroke-linecap:round;stroke-miterlimit:10;stroke-width:2.1;stroke-dasharray:0,10.4408}.m{fill:none;stroke:#fff;stroke-linecap:round;stroke-miterlimit:10;stroke-width:2.1;stroke-dasharray:0,10.274}.n{fill:none;stroke:#fff;stroke-linecap:round;stroke-miterlimit:10;stroke-width:2.1;stroke-dasharray:0,10.619499999999999}.o{fill:none;stroke:#fff;stroke-linecap:round;stroke-miterlimit:10;stroke-width:2.1;stroke-dasharray:0,10.4586}.p{fill:none;stroke:#fff;stroke-linecap:round;stroke-miterlimit:10;stroke-width:2.1;stroke-dasharray:0,10.8477}.q{fill:none;stroke:#fff;stroke-linecap:round;stroke-miterlimit:10;stroke-width:2.1;stroke-dasharray:0,10.6947}.r{fill:none;stroke:#fff;stroke-linecap:round;stroke-miterlimit:10;stroke-width:2.1;stroke-dasharray:0,11.1363}.s{fill:none;stroke:#fff;stroke-linecap:round;stroke-miterlimit:10;stroke-width:2.1;stroke-dasharray:0,10.993499999999997}.t{fill:none;stroke:#fff;stroke-linecap:round;stroke-miterlimit:10;stroke-width:2.1;stroke-dasharray:0,11.4992}.u{fill:none;stroke:#fff;stroke-linecap:round;stroke-miterlimit:10;stroke-width:2.1;stroke-dasharray:0,11.3693}.v{fill:none;stroke:#fff;stroke-linecap:round;stroke-miterlimit:10;stroke-width:2.1;stroke-dasharray:0,11.9536}.w{fill:none;stroke:#fff;stroke-linecap:round;stroke-miterlimit:10;stroke-width:2.1;stroke-dasharray:0,11.8394}.x{fill:none;stroke:#fff;stroke-linecap:round;stroke-miterlimit:10;stroke-width:2.1;stroke-dasharray:0,11.7377}.y{fill:none;stroke:#fff;stroke-linecap:round;stroke-miterlimit:10;stroke-width:2.1;stroke-dasharray:0,12.4255}.z{fill:none;stroke:#fff;stroke-linecap:round;stroke-miterlimit:10;stroke-width:2.1;stroke-dasharray:0,12.3447}.A{opacity:.25;fill:#ff5c64}.B{opacity:.2;fill:#fff}.C{fill:#492e1b}.D{fill:#543520}.E{opacity:.25;fill:#fff}.F{fill:#d4af97}.G{fill:#fff}.H{fill:#3c486d}.I{fill:#505b87}.J{fill:#f2d1ba}.K{fill:#f7e3d3}.L{fill:#f2bf9c}.M{fill:#0068cf}.N{opacity:.2;fill:#0068cf}.O{fill:#f7460f}.P{fill:#f65000}.Q{fill:#c63300}.R{fill:#cc3a00}.S{fill:#ff7242}.T{fill:#f4633b}.U{fill:#ff3746}.V{fill:#ef2942}.W{fill:#fc4254}.X{fill:none;stroke:#505b87;stroke-miterlimit:10;stroke-width:5.1}.Y{opacity:.2;fill:#505b87}.Z{fill:#004bb7}.a0{fill:#ffb440}.a1{fill:#ff9e2f}.a2{fill:#3d2414}.a3{fill:#472b18}.a4{fill:#ef7d00}.a5{fill:#683f23}.a6{opacity:.7;fill:#f2bf9c}.a7{fill:#0262ba}.a8{fill:#004c91}.a9{fill:#0058a0}.aa{fill:#ffa200}.ab{fill:#ff9700}.ac{fill:#935431}.ad{fill:#9b5f39}.ae{fill:#e27100}.af{opacity:.3;fill:#9b5f39}.ag{fill:#864e31}.ah{fill:#603518}.ai{fill:#7b4228}.aj{opacity:.7;fill:#a52721}.ak{opacity:.4;fill:#a52721}.al{fill:#ecc9b1}</style><path class="a" d="m376.4 226.7q0.3-2.4 0.8-4.7-0.5-0.5-1.1-1 0.1 2.9 0.3 5.7z"/><path class="b" d="m494.8 138q0.2-0.4 0.4-0.7"/><path class="c" d=""/><path class="d" d="m385.5 214.1c-1.8-3.4-1.8-7.8 0-11.3 2.4-7.4 7.2-13.2 12-19.1l-24.7-17.3c0 0-1.2-0.5-3.3-1.3-2.6 2.2-5.8 55.5 6.2 75.6q0.6-0.8 1.3-1.5l9.5 5c1.7-2.8 3-6.3 4.2-9.1 1.7-7.9-1.7-14-5.2-21z"/><path class="e" d="m455 224l-57.5-40.3c-4.8 5.9-9.6 11.7-12 19.1-1.8 3.5-1.8 7.9 0 11.3 3.5 7 6.9 13.1 5.2 21-1.2 2.8-2.5 6.3-4.2 9.1l55.9 29.7z"/><path class="f" d="m518.4 224.6c0 0-22.5 18.2-42.7 26.4 2.6 6.6 4.4 13.6 6.7 20.3 4 12.5 2.7 25 5.8 37.1 2.7-8 6.8-15.1 12.9-20.4 27.7-24.2 41.9-26 41.9-26z"/><path class="g" d="m606.9 384.2c-4.5-30.5-39.2-48.5-39.2-48.5l-47.5 23.4-12.4 21.5c0 0-9.2 81.4-9.2 119.5h7c1.7-33.2 8.4-66.2 21.2-96.9 24.2-15.4 53.2-18.3 80.9-12.4q-0.3-3.6-0.8-6.6z"/><path class="d" d="m526.8 403.2c-12.9 30.7-19.5 63.7-21.2 96.9h37.2l4.8-67.7c0.1-2.5 4.3-2.8 4.8-0.3l7.6 68h48.4c0 0 2.7-74.7-0.7-109.3-27.7-5.9-56.7-3-80.9 12.4z"/><g style="opacity:.3"><path class="d" d="m503.9 416.4c-0.3-0.4-0.3-0.9 0-1.2 2.5-2.6 12.3-14.3 11.2-36.1l1.7-0.1c1.1 22.7-9 34.6-11.7 37.4-0.3 0.4-0.9 0.3-1.2 0z"/><path class="d" d="m502.7 426.3c-0.2-0.4 0-0.9 0.3-1.1 0.6-0.4 1.6-1 2.7-1.9l1.1 1.3c-1.2 1-2.2 1.6-2.9 2-0.4 0.3-0.9 0.2-1.2-0.3zm7.3-4.7l-1.3-1.1q1.5-1.5 2.8-3.2l1.3 1.1q-1.4 1.7-2.8 3.2zm5.3-6.8l-1.5-0.9q1.1-1.7 2.1-3.6l1.5 0.8q-1 1.9-2.1 3.7zm3.9-7.6l-1.6-0.7q0.8-1.9 1.4-3.9l1.7 0.5q-0.7 2.1-1.5 4.1zm2.6-8.2l-1.7-0.4q0.5-2 0.9-4.1l1.6 0.3q-0.3 2.1-0.8 4.2zm1.4-8.5l-1.7-0.2q0.2-2 0.3-4.1h1.7q-0.1 2.2-0.3 4.3zm-1.4-8.5q0-2.1-0.1-4.2l1.7-0.1q0.1 2.2 0.1 4.3z"/></g><g style="opacity:.3"><path class="d" d="m607.6 410c-15.1 0-27.6-9-36.1-26.1-6.6-13.1-8.6-26.4-8.6-26.6l1.7-0.2c0.1 0.5 8.1 52 43.8 51.2v1.7q-0.4 0-0.8 0z"/><path class="d" d="m608 417.2q-1.7-0.1-3.4-0.2l0.2-1.7q1.6 0.2 3.3 0.2zm-6.8-0.7q-1.7-0.3-3.4-0.8l0.4-1.6q1.6 0.4 3.3 0.7zm-6.7-1.7q-1.6-0.6-3.2-1.3l0.7-1.5q1.5 0.6 3 1.2zm-6.3-2.8q-1.5-0.8-3-1.7l0.9-1.4q1.4 0.9 2.9 1.6zm-5.8-3.7q-1.4-1-2.7-2.1l1.1-1.3q1.3 1.1 2.6 2.1zm-5.2-4.5q-1.2-1.2-2.4-2.5l1.3-1.2q1.1 1.3 2.3 2.5zm-4.5-5.2q-1.1-1.4-2.1-2.8l1.4-0.9q1 1.4 2 2.7zm-3.9-5.7q-0.8-1.5-1.7-3l1.5-0.8q0.8 1.5 1.7 2.9zm-3.3-6q-0.7-1.6-1.4-3.2l1.6-0.6q0.6 1.5 1.3 3zm-2.7-6.3q-0.6-1.6-1.1-3.2l1.6-0.5q0.5 1.5 1.1 3.1zm-2.2-6.5q-0.5-1.6-0.9-3.3l1.6-0.4q0.5 1.6 0.9 3.2zm-1.7-6.6q-0.4-1.7-0.7-3.4l1.7-0.3q0.3 1.7 0.7 3.3zm-1.3-6.7c-0.3-2.2-0.4-3.4-0.4-3.5l1.6-0.1c0 0 0.1 1.3 0.5 3.3z"/></g><path fill-rule="evenodd" class="h" d="m481.8 213.9l-35.2 43.2 25.5 35.8 36-29.8z"/><path class="i" d="m650.5 274.9l-46.2-67.4-8.1 50.6 26.6 33.7c11.1-0.9 19.9-8.5 27.7-16.9z"/><path class="j" d="m622.8 291.8l2.5 3.2-6.8 26.9c8.4 5.8 14.6-0.6 23.5 4.6l16.2-40.3-7.7-11.3c-7.8 8.4-16.6 16-27.7 16.9z"/><path class="h" d="m486.9 208.1c0 0-17.1 14.2-10.5 37.1 6.5 22.9 44.4 88.3 27.8 154.5 0 0 55.3-27.3 104.1 0 0 0-3.7-173.2-33.5-218.1 0 0-15.7-4.4-38 0.2-14.9 3.2-33.2 10.1-49.9 26.3z"/><path class="h" d="m574.8 181.6c0 0 37.6 20.8 67.8 76.3 0 0-7.4 19.6-23.7 37.2l-22.4-33.3c0 0-26.3-46.2-21.7-80.2z"/><g style="opacity:.2"><g clip-path="url(#cp1)"><path fill-rule="evenodd" class="k" d="m452.4 246.9"/><path class="l" d="m459.4 239.3c20.3-20.9 83.9-77.4 180.9-83.5"/><path fill-rule="evenodd" class="k" d="m645.5 155.5"/><path fill-rule="evenodd" class="k" d="m455.1 257.4"/><path class="m" d="m462.2 250c20.7-19.8 84.8-73.5 180.1-77.8"/><path fill-rule="evenodd" class="k" d="m647.4 172"/><path fill-rule="evenodd" class="k" d="m457.7 267.8"/><path class="n" d="m465.4 260.5c21.3-19.1 85.8-69.2 178.7-72"/><path fill-rule="evenodd" class="k" d="m649.4 188.4"/><path fill-rule="evenodd" class="k" d="m460.4 278.2"/><path class="o" d="m468.3 271.3c21.6-18.1 86.7-65.3 177.8-66.4"/><path fill-rule="evenodd" class="k" d="m651.4 204.9"/><path fill-rule="evenodd" class="k" d="m463.1 288.7"/><path class="p" d="m471.5 281.8c22.3-17.3 87.6-61.1 176.4-60.6"/><path fill-rule="evenodd" class="k" d="m653.3 221.3"/><path fill-rule="evenodd" class="k" d="m465.8 299.1"/><path class="q" d="m474.3 292.6c22.6-16.2 88.5-57.2 175.7-55"/><path fill-rule="evenodd" class="k" d="m655.3 237.8"/><path fill-rule="evenodd" class="k" d="m468.5 309.5"/><path class="r" d="m477.6 303.1c23.4-15.4 89.4-52.9 174.1-49.2"/><path fill-rule="evenodd" class="k" d="m657.3 254.2"/><path fill-rule="evenodd" class="k" d="m471.2 320"/><path class="s" d="m480.4 314c23.7-14.3 90.3-49.1 173.3-43.7"/><path fill-rule="evenodd" class="k" d="m659.2 270.7"/><path fill-rule="evenodd" class="k" d="m473.9 330.4"/><path class="t" d="m483.8 324.6c24.3-13.5 91-44.9 171.7-38"/><path fill-rule="evenodd" class="k" d="m661.2 287.1"/><path fill-rule="evenodd" class="k" d="m476.6 340.8"/><path class="u" d="m486.6 335.4c24.6-12.3 91.8-41 170.9-32.5"/><path fill-rule="evenodd" class="k" d="m663.2 303.6"/><path fill-rule="evenodd" class="k" d="m479.3 351.2"/><path class="v" d="m490.1 346.1c25.3-11.4 92.4-36.8 169.1-26.9"/><path fill-rule="evenodd" class="k" d="m665.1 320"/><path fill-rule="evenodd" class="k" d="m482 361.7"/><path class="w" d="m492.9 357c25.6-10.3 93.2-33 168.3-21.5"/><path fill-rule="evenodd" class="k" d="m667.1 336.5"/><path fill-rule="evenodd" class="k" d="m484.7 372.1"/><path class="x" d="m495.6 367.9c25.9-9.2 94.1-29.2 167.7-16.1"/><path fill-rule="evenodd" class="k" d="m669 352.9"/><path fill-rule="evenodd" class="k" d="m487.4 382.5"/><path class="y" d="m499.2 378.6c26.6-8.2 94.5-25.1 165.7-10.6"/><path fill-rule="evenodd" class="k" d="m671 369.4"/><path fill-rule="evenodd" class="k" d="m490.1 393"/><path class="z" d="m501.9 389.5c26.9-7 95.4-21.3 165.1-5.2"/><path fill-rule="evenodd" class="k" d="m673 385.8"/></g></g><path class="A" d="m597.5 263.2c0 0-10.3-11.9-21.9-19.5 0 0 14.2 84.2 11 147.4 0 0 14.9 4 21.7 8.6 0 0-3.3-103.2-10.8-136.5z"/><path class="A" d="m514.6 267.5c-2.9-8.4-8.9-15.4-16.9-19.5-6-3.1-12.6-7.1-15.9-11.3-6.1-7.7-5.8-15.7-5.8-15.7 0 0-8.4 9.6-8.6 13.4-0.3 4.2 4 5.3 4.6 9.3 0.2 1.9 4.3 1.6 5.1 3.9 3.2 9.5 10.1 22.8 16.1 39.8 2.9 8 5.7 16.8 8.1 26.2 2.4-9 6-17.8 10-25.8 3.1-6.1 4.2-13.4 3.3-20.3z"/><path class="B" d="m582.7 207.8q9.6 9.8 19.2 19.6c0.7 0.7 1.7 1.5 2.6 1.2 0.8-0.3 1.1-1.1 1.3-1.8 1.5-5.1-0.1-10.6-3.1-14.9-3-4.3-7.2-7.6-11.6-10.4-1.8-1.1-3.6-2.2-5.6-2.7-7.7-2-6.6 5.2-2.8 9z"/><path class="i" d="m511.4 162.7c-1-2.4-2-5.1-2.9-8.1-10.1-33.4-24 31.6-24 31.6 0 0 4.5 5.4 5.9 12.2 3.3 3.3 11.8 3.8 15.5 0.8 3.6-3.1 5.7-6.1 7-9.3 1.3-9 0.4-18.3-1.5-27.2z"/><path class="j" d="m537.9 186.5l-2-4.8c0 0-10.7 3.9-20.2-10.6-1.5-2.3-2.9-5.1-4.3-8.4 1.2 5.5 2 11.1 2.1 16.7 0.1 6.7-2.7 13.1-7.7 17.5q-0.1 0.1-0.1 0.1c-3.7 3-12 4.7-15.3 1.4 0.5 2.5 0.6 5.3-0.3 8.1-1.4 8.3 1.4 16.3 9.1 19.5 12.1 5.4 29 2 35-10.1 5.1-8.8 6.4-19.4 3.7-29.4z"/><path class="i" d="m465 159.3c2.4 5 2 10.2-1 11.7-3 1.4-7.4-1.4-9.9-6.3-2.4-5-2-10.2 1-11.7 3-1.5 7.4 1.3 9.9 6.3z"/><path class="j" d="m502 144.7q0.1-1.2 0.2-2.3-0.1-0.2-0.2-0.4 0.1 0.2 0.2 0.4c0.3-3.8 0.7-7.6 0.9-11.4-0.6 0.2-0.9 0.3-1 0-3.3-8.9-3.9-3.4-10.8-10.1-6.9-6.7-18.2-10-26.4-5l-4 3.7c-6.8 0.6-1.6 12.2-8.4 12.5-3.4 0.2-6.2 16.4 4.4 29.9 0.8 0.9 3.1 7.6 5.3 11.5 5.2 9.3 21.2 23.2 35.4 17.6 14.5-5.8 12.8-30.4 11.5-34.1-0.1-0.4 0-0.6 0.3-0.8-3.6-3.9-4.7-9.1-7.2-13.8q-0.1 1.1-0.2 2.3z"/><path class="i" d="m503.1 131c-0.2 3.8-0.6 7.6-0.9 11.4 2.5 4.7 3.5 9.9 7.2 13.8 1.5-1.2 6.9-1.9 7.7-9.5 2.6-27.2-10.3-17.4-14-15.7z"/><path class="C" d="m452.5 144.6q-0.7 1.5-1.6 2.8 0.9-1.3 1.6-2.8-0.8 0.4-1.6 0.7 0.8-0.3 1.6-0.7c1.7-3.1 2.5-6.7 3.2-10.4-4.4 3.6-9.7 6.3-15.7 7.6q-0.7 6.3-0.7 13.2c6.7-4.6 6.5-6 11.6-12-2.7 5.7-5.4 11-5.4 11 0 0 11.7-7.4 15.8-12.6 1.5-1.9 2.8-3.9 3.8-6q0-0.1 0-0.1c-2.8 5.3-7.9 7.5-12.6 9.3z"/><path class="C" d="m476.2 132.1c4.3-2.2 8.6-7.5 10.6-10.1-3.5 1.2-6.3 3.7-9.8 4.7-0.1 1.8-0.3 3.7-0.8 5.4z"/><path class="D" d="m517.7 148c1.4-13.4-4.2-27.4-14.4-36.2-1.6-1.4-3.3-2.7-5.4-3.1-2-0.5-6.1-1.1-7.3 0.7-4-5.8-9.1-8.5-16.1-8.5-20.4 0-30.6 15.2-33.9 36.4q-0.4 2.2-0.6 4.5c6-1.3 11.3-4 15.7-7.6q0.2-0.6 0.3-1.2-0.1 0.6-0.3 1.2 0.2-0.1 0.3-0.2-0.1 0.1-0.3 0.2c-0.7 3.7-1.5 7.3-3.2 10.4 4.7-1.8 9.8-4 12.6-9.3-0.1-0.2-0.3-0.2-0.9-0.2 0.6 0 0.8 0 0.9 0.2q0-0.1 0.1-0.2 0 0.1-0.1 0.2 0 0 0 0.1 0.7-1.4 1.3-2.8-0.1 1.5-0.4 2.9c2.7-2 5.5-3.6 7.9-5.8 1.3-2.4 2.2-5 2.5-7.8q0.6 2.4 0.5 4.8c3.6-1 6.4-3.5 9.9-4.7 0.7-0.9 1.2-1.4 1.2-1.4 2.6 1.8 4.5 4.5 6.1 7.2 3.9 6.7 6.4 14.2 7.4 21.9q2.1-0.5 4.3-1c-0.9-3.7-1.3-7.5-1.2-11.3 0-2.1 0.6-4.8 2.7-5.1 1.4-0.2 2.7 0.8 3.5 1.9 2.6 3.1 3.9 7.2 4.2 11.3 0.2 2.2 0.1 4.5-0.9 6.5-1.1 1.9-3.5 3.3-5.6 2.6 1.4 5.5 3.5 9.6 6.7 15.6-1.7-7.1-1.6-6.1-0.3-9.9 1.3-4 2.4-8.1 2.8-12.3z"/><path class="C" d="m464.3 140.3c3.8-2.9 7.3-6.5 9.6-10.6-2.4 2.2-5.2 3.8-7.9 5.8-0.4 1.7-0.9 3.3-1.7 4.8z"/><path class="C" d="m490.6 109.7c0 0-2.2 2-2.5 10.7 0 0-1.9-4.1-0.2-8.5 1.6-4.5 2.7-2.2 2.7-2.2z"/><path class="E" d="m457.5 110.1c-3.6 2.7-6.9 6.3-7.8 10.7-0.2 0.6-0.2 1.3 0.2 1.6 0.3 0.2 0.7 0.2 1.1 0.1 1-0.3 1.8-1.1 2.5-1.8 3.5-3.6 7.2-7.3 11.9-8.8 1.8-0.6 4.1-0.9 5.3-2.5 1-1.4 1-4.1-1-4.6-1.6-0.4-4.2 0.8-5.6 1.4-2.4 1-4.6 2.3-6.6 3.9z"/><path class="F" d="m482.2 166.5c-0.1 0.2-0.4 0.2-0.5 0.2q-0.3 0-0.6-0.1-0.5-0.1-1-0.3-1-0.4-1.8-0.9-0.9-0.5-1.7-1.2-0.8-0.6-1.5-1.3l-0.9-0.9 1.1-0.4q1-0.3 1.9-0.5 0.9-0.3 1.9-0.6 1.9-0.5 3.8-0.9-1.7 1-3.5 1.8-0.9 0.4-1.8 0.8-0.9 0.4-1.8 0.8l0.2-1.2q0.9 0.5 1.6 1.1 0.8 0.6 1.6 1.2 0.7 0.7 1.4 1.3 0.4 0.4 0.8 0.7 0.1 0.1 0.3 0.3c0.2 0 0.3 0.2 0.5 0.1z"/><path class="G" d="m476.4 178c0 0 6.4 1.1 14.2-4.1 7.8-5.3 8.3-11.9 8.3-11.9 0 0 2.4 11-5.5 16.3-8 5.4-17-0.3-17-0.3z"/><path class="H" d="m465.7 155.3q-0.1 0.9 0.2 1.8c0.6 1.9 2.1 3 3.3 2.6 0.9-0.3 1.4-1.3 1.4-2.6-1.8 0.4-3.7-0.1-4.9-1.8z"/><path class="I" d="m470.4 155.7c-0.6-1.8-2.1-3-3.3-2.6-0.8 0.3-1.3 1.1-1.4 2.2 1.2 1.7 3.1 2.2 4.9 1.8q0-0.7-0.2-1.4z"/><path class="H" d="m485.2 148.7q0 0 0 0c0.6 1.8 2.1 3 3.3 2.6 0.9-0.3 1.4-1.3 1.4-2.6-1.5 0.3-3.2 0.2-4.7 0z"/><path class="I" d="m489.7 147.3c-0.6-1.8-2.1-3-3.3-2.6-1.3 0.4-1.8 2.2-1.2 4 1.5 0.2 3.2 0.3 4.7 0q0-0.7-0.2-1.4z"/><path class="D" d="m460.1 154.2c-0.9-1.2-1.2-2.6-1.2-4 0-1.4 0.5-2.9 1.5-4.2 0.5-0.6 1.1-1.1 1.8-1.5q0.5-0.3 1-0.5c0.4-0.2 0.8-0.2 1.1-0.3 0.8-0.2 1.5-0.1 2.2 0 0.4 0.1 0.7 0.2 1 0.3q0.5 0.2 1 0.5c-0.6 0.5-1.2 0.8-1.7 1.2-0.4 0.4-0.9 0.6-1.3 0.9-0.8 0.6-1.4 1.3-1.9 1.9-0.6 0.7-1.1 1.5-1.6 2.4-0.6 1-1.1 2-1.9 3.3z"/><path class="D" d="m490.9 138.9c-1.5-0.2-2.7-0.4-3.7-0.5-1.1-0.1-2.1-0.2-2.9-0.2-0.9 0.1-1.7 0.1-2.7 0.4-0.5 0.1-1 0.4-1.6 0.5-0.6 0.2-1.1 0.5-1.9 0.7q0-0.6 0.2-1.1c0.1-0.3 0.2-0.7 0.3-1 0.4-0.6 0.7-1.3 1.3-1.8 0.3-0.2 0.6-0.5 0.9-0.7q0.5-0.3 1.1-0.5c0.7-0.3 1.5-0.5 2.3-0.5 1.5-0.1 3 0.5 4.2 1.3 1.2 0.8 2.1 1.9 2.5 3.4z"/><path class="G" d="m468.9 154.6c0 0.4-0.4 0.7-0.8 0.7-0.4 0-0.7-0.3-0.7-0.7 0-0.4 0.3-0.8 0.7-0.8 0.4 0 0.8 0.4 0.8 0.8z"/><path fill-rule="evenodd" class="G" d="m487.2 146.6c-0.4 0-0.8-0.4-0.8-0.8 0-0.4 0.4-0.7 0.8-0.7 0.4 0 0.7 0.3 0.7 0.7 0 0.4-0.3 0.8-0.7 0.8z"/><path class="j" d="m625.3 295l-21.5 89.5c6.6 4.8 5.8 1.9 13.1 4.1l41.3-102.4c-8.8-5.1-24.5 14.6-32.9 8.8z"/><path class="j" d="m616.3 392.9l0.6-4.3-13.6-7.1-25.2-6.2-18.1 16.4 1.9 3.9 1.1 2.1 6.3 12.8 25.9-6.6 2.7 1.8c8.5 0.9 14-5.4 18.4-12.8z"/><path class="i" d="m597.9 405.7l1.2 0.8c2.7 1.8 6.3 1.9 9.1 0.3l3-1.6c2.4-1.4 4-3.8 4.4-6.6l0.7-5.7c-4.4 7.4-9.9 13.7-18.4 12.8z"/><path class="i" d="m561.9 395.6q2.3-1.9 4.7-3.5 2.4-1.8 4.9-3.4c1.6-1.1 3.3-2.1 5-3.1q2.5-1.6 5-3.1l0.3-0.1 0.4 0.1q2.5 1 5 2 2.5 1.1 4.9 2.3-2.7-0.6-5.3-1.3-2.6-0.8-5.1-1.6l0.6-0.1q-2.5 1.6-4.9 3.2c-1.7 1-3.4 2.1-5.1 3q-2.5 1.5-5.1 2.9-2.6 1.4-5.3 2.7z"/><path class="i" d="m564.2 400.2q2.3-1.5 4.7-2.8 2.5-1.3 4.9-2.6c1.7-0.8 3.3-1.6 5-2.3q2.5-1.2 5-2.2l0.3-0.1h0.2c2.6 0.7 5.2 1.5 7.8 2.4-2.7-0.2-5.4-0.6-8.1-1l0.4-0.1q-2.4 1.3-4.9 2.5c-1.7 0.8-3.3 1.5-5 2.3q-2.5 1.1-5.1 2.1-2.6 1-5.2 1.8z"/><path class="i" d="m566.9 405.7c1.5-1 3-1.8 4.5-2.6l2.4-1.2 2.3-1.2c1.6-0.7 3.2-1.4 4.8-2.1q1.2-0.5 2.5-0.9 1.2-0.5 2.4-1h0.2 0.1q1.6 0.1 3.3 0.2c1.1 0.1 2.2 0.2 3.3 0.4-1.1 0.2-2.2 0.3-3.3 0.4q-1.7 0.2-3.3 0.3l0.2-0.1q-1.1 0.6-2.3 1.2-1.2 0.5-2.4 1.1c-1.6 0.7-3.2 1.4-4.8 2l-2.4 1-2.5 0.9c-1.7 0.6-3.3 1.1-5 1.6z"/><path class="i" d="m601.9 381.9c1.2 0.2 2.2 0.9 3 1.8q1.2 1.2 1.9 2.7c0.3 0.5 0.5 1.1 0.7 1.6 0.2 0.5 0.4 1 0.5 1.6 0.3 1.1 0.5 2.2 0.4 3.3-0.3-0.4-0.6-0.9-0.8-1.4-0.3-0.5-0.6-0.9-0.8-1.4l-1.5-2.9q-0.7-1.4-1.5-2.7c-0.5-0.9-1.1-1.8-1.9-2.6z"/><path class="j" d="m595.7 384.1c-2.6-2.8-4.7-6-6.3-9.5-1.1-2.4-2-4.9-2.1-7.6 0-1.3 0.4-2.8 1.6-3.3 0.8-0.3 1.8 0 2.4 0.6 0.7 0.6 1.1 1.4 1.6 2.2 2.9 5.2 8.7 12.5 13.7 15.9"/><path class="i" d="m589.9 378.2c1.1-0.1 2.2-0.1 3.2-0.1q1.6 0.1 3.1 0.4 1.6 0.3 3.1 0.7c1 0.3 2 0.7 2.9 1.2-1.1 0.2-2.1 0.2-3.2 0.1q-1.5-0.1-3.1-0.3-1.5-0.3-3-0.8c-1-0.3-2-0.6-3-1.2z"/><path class="J" d="m467.7 349.8l-60.9-2.1-10.8-0.4c0 0 1 16.3-0.8 32.6-0.9 8.8-2.7 17.7-5.8 23.9 0 0 5.3 1 13.3 2.1 2.6-7.9 3.9-16 4.4-24.2 19.5 1.8 40.3-1.2 59-4-0.6-7.9-0.4-17.3 1.6-27.9z"/><path class="K" d="m466.1 377.7c-18.7 2.8-39.5 5.8-59 4-0.5 8.2-1.8 16.3-4.4 24.2 20.9 2.9 59.7 6.9 69.4-2.1 0 0-4.7-9.8-6-26.1z"/><path class="L" d="m433 388.3c0 1.8-0.8 3.3-1.7 3.3-1 0-1.8-1.5-1.8-3.3 0-1.8 0.8-3.2 1.8-3.2 0.9 0 1.7 1.4 1.7 3.2z"/><path class="M" d="m488.2 308.4c-3.1-12.1-1.8-24.6-5.8-37.1-2.3-6.7-4.1-13.7-6.7-20.3q-2.6 1.1-5.2 1.9-2.6 0.9-5 1.4c-24.3 5-47.6 1.5-66.6-4.3-26.9-8.3-45-21.3-45-21.3l-7.3 40.1c0 0 31.7 12.3 33.6 24.2 1.9 11.8-3.1 12.8 2.4 28.2 5.1 14.5-1.4 35.3-2.3 38q-0.1 0.3-0.1 0.3c0 0 52 28.3 106.7 16.9 0 0-3-14.2-3.3-31.8-0.2-11.6 0.8-24.7 4.6-36.2z"/><g style="opacity:.2"><path class="M" d="m454.9 356.1c-8.7 0-16.8-4.1-24-8.8-8.5-5.6-18.7-13.2-23.2-22.6 14.7 12.3 29.7 23.3 47.2 31.4z"/></g><g style="opacity:.2"><path class="M" d="m467.2 350.6c-5.6 0-10.9-2.6-15.6-5.7-5.5-3.7-12.2-8.6-15.1-14.7 9.6 8 19.3 15.2 30.7 20.4z"/></g><g clip-path="url(#cp2)"><path class="G" d="m491.3 302.2c-59.6-11.8-111.7-6.7-112.3-6.7l-0.3-3.1c0.5 0 53.2-5.1 113.2 6.8z"/><path class="G" d="m491.3 324.2c-59.6-11.8-111.7-6.7-112.3-6.7l-0.3-3.1c0.5 0 53.2-5.1 113.2 6.8z"/><path class="G" d="m490.6 317.1c-59-11.7-110.7-6.7-111.2-6.7l-1-10.2c2.1-0.2 53.6-5.2 114.2 6.9z"/></g><path class="N" d="m400.6 324.7c1.1-8.2-12.3-13.3-5.1-21.5 6.2-7.2 13.3-14.4 12.3-24.6-1.8-10-11.6-18.3-8.9-28.6-26.9-8.3-45-21.3-45-21.3l-7.3 40.1c0 0 31.7 12.3 33.6 24.2 1.9 11.8-3.1 12.8 2.4 28.2 5.1 14.5-1.4 35.3-2.3 38 11-7.6 18.9-18.4 20.3-34.5z"/><path class="N" d="m471.3 280.9q1.1-1.2 2.1-2.3-1 1.1-2.1 2.3 0 1.5 0.1 2.8-0.1-1.3-0.1-2.8c-9.8 10.8-20.2 23.5-16.3 39.7 2.8 12.1 14.9 24.2 28.6 24-0.2-11.6 0.8-24.7 4.6-36.2-3.1-12.1-1.8-24.6-5.8-37.1-2.3-6.7-4.1-13.7-6.7-20.3q-2.6 1.1-5.2 1.9c3.5 7.8 0.8 19.1 0.8 28z"/><path class="O" d="m387.2 395.7c-7.1-2.2-11.2-4.1-11.2-4.1l6.1 15.4q5.7 1.8 11.4 3.1c0.3-3.9-3-9.4-6.3-14.4z"/><path class="P" d="m387.2 395.7c3.3 5 6.6 10.5 6.3 14.4 28.6 6.5 58.6 3.1 87.5-3.7l2.1-12.7c-39.2 15.9-77.6 7.8-95.9 2z"/><path class="Q" d="m393.5 410.1q-5.7-1.3-11.4-3.1l0.5 1.2c-0.8 1.5-1.6 3.5-2.4 5.9q5.6 3.2 11.4 5.6 0.8-4.5 1.9-8.9 0-0.3 0-0.7z"/><path class="R" d="m482.9 412.5c-1.3-2.8-2.2-4.6-2.2-4.6l0.3-1.5c-28.9 6.8-58.9 10.2-87.5 3.7q0 0.4 0 0.7-1.1 4.4-1.9 8.9c29.5 11.8 62.7 7 91.3-7.2z"/><path class="O" d="m405.8 459c5.4 13 9.1 27 9.7 41h7.2 5.4c-0.7-8.2-1.1-16.5-3.8-24.2-6.8-4.9-13.6-9.9-18.5-16.8z"/><path class="P" d="m482.9 412.5c-28.6 14.2-61.8 19-91.3 7.2-5.1 26.8-4.5 55.4 5.4 80.3h18.5c-0.6-14-4.2-28-9.7-41 4.9 6.9 11.7 11.9 18.5 16.8q0-0.2-0.1-0.4 0.1 0.2 0.1 0.4 0.5 0.3 0.9 0.6-0.4-0.3-0.9-0.6c2.7 7.7 3.1 16 3.8 24.2h3.4 8.9 58.2c0-1.7 0-60.3-15.7-87.5z"/><path class="O" d="m391.6 419.7q-5.8-2.4-11.4-5.6c-11.2 21.2-7.5 85.9-7.5 85.9h24.3c-9.9-24.9-10.5-53.5-5.4-80.3z"/><path class="Q" d="m373 447.6l-0.5 1.6c0.1 0 1.9 0.5 4.7 0.5 3 0 7-0.5 11.3-2.8q0.1-0.9 0.2-1.9c-7.9 4.7-15.2 2.7-15.7 2.6z"/><path class="R" d="m405.4 424l-1.6-0.5c-4 12.1-9.7 18.3-15.1 21.5q-0.1 1-0.2 1.9c6-3.1 12.5-9.7 16.9-22.9z"/><path class="R" d="m493.9 451.4c-13.4 0-23.6-3.5-30.4-10.3-8.2-8.1-8.3-18.1-8.3-18.5h1.7c0 1.1 0.5 27.1 37 27.1z"/><path class="R" d="m426.9 500.1l-3.4-24.5c-9.2-4.6-16.8-13.1-19.1-15.7-0.3-0.5-0.3-1.1 0.2-1.5 0.4-0.3 1.1-0.3 1.4 0.1 2.2 2.6 9.9 11.1 18.9 15.5l0.5 0.2 3.5 25.7z"/><path class="B" d="m476.5 452.1c1.1 5.5 0.8 11.4 2.8 16.6 0.5 1.3 1.1 2.6 2.3 3 1.2 0.5 2.7-0.3 3.5-1.5 0.8-1.2 1.1-2.6 1.3-4.1 0.9-6.1 0.7-12.4-0.5-18.4-1-4.4-2.9-13.1-6.6-15.9-2.7-2-7.2-0.3-7.9 3.3-0.9 4.7 4.2 12.3 5.1 17z"/><path class="K" d="m328.9 146.9c-2.6 2.6-5.5 5-8.8 7.1-8.7 6-19.9 0.8-27-7.4-0.1 2.5-0.2 5.1-0.8 6.8-3.8 1.1-7.9 2.5-12 4.1-1.2 22.2 24.6 40.1 46.3 29.4 12.1-5.6 16.3-16.5 18-28.9-4.6-1.3-9.3-3.5-14.2-4.5-0.3-1.2-0.9-3.6-1.5-6.6z"/><path class="J" d="m320.1 154c3.3-2.1 6.2-4.5 8.8-7.1-0.8-4.3-1.6-9.8-1.4-14.7l-34.8 4.9c0 0 0.4 4.8 0.4 9.5 7.1 8.2 18.3 13.4 27 7.4z"/><path fill-rule="evenodd" class="J" d="m281 117c-3.8 0-6.9-4.6-6.9-10.1 0-5.6 3.1-10.1 6.9-10.1 3.9 0 7 4.5 7 10.1 0 5.5-3.1 10.1-7 10.1z"/><path class="J" d="m346.7 106.9c0 5.5-3.1 10.1-6.9 10.1-3.9 0-7-4.6-7-10.1 0-5.6 3.1-10.1 7-10.1 3.8 0 6.9 4.5 6.9 10.1z"/><path fill-rule="evenodd" class="S" d="m280 92.5l3.3 30.9 54 1.1 3.5-32-6.7-17-46.4 0.2z"/><path class="K" d="m310.8 73.3h-0.5-19.7l-7.3 15q0 0.4 0 0.9c0 6.1 0 29.6 0 33.3 0 4.4 4.1 17.1 10.9 21.8 6.3 4.3 13.7 5.3 16.1 5.4q0 0 0 0 0.1 0 0.3 0 0.1 0 0.2 0 0 0 0 0c2.4-0.1 9.6-1.1 15.9-5.4 6.8-4.7 10.8-17.4 10.8-21.8 0-3.7 0-27.2 0-33.3q0-0.5 0-0.9l-7.2-15z"/><path class="H" d="m295.6 102.6q-0.2 0.7-0.2 1.5c0 2.2 1.1 3.9 2.6 3.9 0.9 0 1.7-0.7 2.2-1.7-2 0.7-4.3-1.3-4.6-3.7z"/><path class="I" d="m298 100.2c-1.1 0-2 1-2.4 2.4 0.3 2.4 2.6 4.4 4.6 3.7 0.3-0.6 0.4-1.4 0.4-2.2 0-2.1-1.1-3.9-2.6-3.9z"/><path class="H" d="m320.4 102.5q-0.2 0.8-0.3 1.6c0 2.2 1.2 3.9 2.7 3.9 0.9 0 1.8-0.7 2.2-1.8-1.9-0.2-3.9-1.6-4.6-3.7z"/><path class="I" d="m322.8 100.2c-1.1 0-2 1-2.4 2.3 0.7 2.1 2.7 3.5 4.6 3.7 0.3-0.6 0.4-1.3 0.4-2.1 0-2.1-1.1-3.9-2.6-3.9z"/><path class="S" d="m290.4 99.8q-0.2 0-0.5-0.1c-0.6-0.2-1-1-0.7-1.7 0.1-0.3 3.2-7.8 13.6-8.1 0.7 0 1.3 0.6 1.4 1.3 0 0.8-0.6 1.4-1.3 1.4-8.6 0.3-11.1 6.2-11.2 6.4-0.2 0.5-0.7 0.8-1.3 0.8z"/><path class="S" d="m330.4 99.8c-0.6 0-1.1-0.3-1.3-0.8-0.1-0.2-2.7-6.1-11.2-6.4-0.7 0-1.3-0.6-1.3-1.4 0.1-0.7 0.7-1.3 1.4-1.3 10.4 0.3 13.5 7.8 13.6 8.1 0.3 0.7-0.1 1.5-0.7 1.8q-0.3 0.1-0.5 0z"/><path class="F" d="m310.2 121.6c-0.4 0.2-0.9 0.3-1.3 0.3q-0.8 0.1-1.5-0.2c-1-0.3-1.8-1.1-2.2-2.1-0.5-1-0.6-2-0.5-3 0.1-1.1 0.5-2.1 1.2-2.9 0.6-0.9 1.5-1.5 2.5-1.9 1-0.3 2-0.4 3-0.3q0.4 0.1 0.7 0.2c0.3 0 0.5 0.1 0.8 0.2q0.7 0.3 1.3 0.8c0.7 0.7 1.1 1.7 1.1 2.6-0.3-0.8-0.9-1.5-1.6-1.9q-0.6-0.3-1.1-0.4c-0.4-0.1-0.9-0.2-1.3-0.1-1.6 0-3.2 0.5-4.1 1.8-0.5 0.6-0.8 1.3-0.9 2.1-0.1 0.8-0.1 1.6 0.1 2.3 0.2 0.8 0.7 1.4 1.3 1.9 0.7 0.4 1.6 0.7 2.5 0.6z"/><path class="G" d="m294.8 127.6c0 0 5.3 5.1 15.9 5.1 10.6 0 15.3-6 15.3-6 0 0-4.7 11.9-15.5 11.9-10.8 0-15.7-11-15.7-11z"/><path class="G" d="m299.4 102c0.1 0.4-0.2 0.8-0.6 0.9-0.5 0.1-0.9-0.2-1-0.6-0.1-0.5 0.2-0.9 0.6-1 0.5-0.1 0.9 0.2 1 0.7z"/><path class="G" d="m324.2 102c0.1 0.4-0.2 0.8-0.6 0.9-0.4 0.1-0.9-0.2-0.9-0.6-0.1-0.5 0.1-0.9 0.6-1 0.4-0.1 0.8 0.2 0.9 0.7z"/><path class="e" d="m306.6 55.7c-12.8 1.1-19.6 7.9-23.1 13.8-2.4 4-3.5 8.6-3.5 13.2v9.8l2.5-2q1.3-1.1 2.7-2c0.5-14.6 9.6-25.8 21.4-32.8z"/><path class="d" d="m285.2 88.5c5.5-3.7 12-5.7 18.8-5.8h6.4v-27.2q-2 0-3.8 0.2c-11.8 7-20.9 18.2-21.4 32.8z"/><path class="d" d="m310.4 55.5v27.2h6.4c7.9 0.1 15.5 2.9 21.5 7.8l2.5 2v-9.8c0-4.9-1.3-9.7-3.9-13.8-3.9-6.3-11.6-13.4-26.5-13.4z"/><path class="S" d="m323.5 72c2.2-1.2 3.7-2.9 4.8-4.9-0.1-2.4-1-4.7-2.8-6.3-3-2.6-7.5-2.8-11.5-2-3.5 0.7-7 1.7-10.5 2.7-6.3 1.7-11-4-11-4 0 0-0.1 1.8 0.1 4.4 5.2 11.5 19.1 17.2 30.9 10.1z"/><path class="T" d="m323.5 72c-11.8 7.1-25.7 1.4-30.9-10.1 0.4 4.3 1.7 10.9 6.2 14.4 4.1 3.3 9.5 4.7 14.7 4.3 4.9-0.4 9.9-2.4 12.7-6.4 1.5-2 2.2-4.6 2.1-7.1-1.1 2-2.6 3.7-4.8 4.9z"/><path class="B" d="m319.3 64.6c4.2 2 5.4-0.6 5.1-1.5-0.1-0.6-0.6-1.1-1.2-1.5-1.2-1-3.9-2.3-5.5-1.4-2.4 1.3 0.2 3.7 1.6 4.4z"/><path class="B" d="m332.2 74c1.1 2.1 1.4 4.5 1.7 6.8 0.1 0.7 0.2 1.4 0.6 1.9 0.4 0.6 1.2 0.9 1.8 0.6 0.5-0.2 0.7-0.8 0.9-1.3 0.8-2.4 0.7-5.2-0.2-7.5-0.6-1.5-2.2-4.7-4.1-4.8-2.9 0-1.3 3-0.7 4.3z"/><path class="U" d="m252.1 384.7c-2.6 23.6-4 93.1-1.7 115.3h47.8c0 0 1.6-74.4 14.8-74.4 12.3 0 17.2 74.4 17.2 74.4h48.7c0 0-3.9-100-12.6-133.5-33.3 22.3-75.1 31.2-114.2 18.2z"/><path class="V" d="m255.3 356.4c0 0-1.5 12.3-3.2 28.3 39.1 13 80.9 4.1 114.2-18.2-1.3-6.6-2.6-12.4-3.6-16.9z"/><path class="h" d="m265.4 390.6c-8 3.7-14 3-14.1 3l-0.2 1.6c0.1 0-0.1 0 1.1 0 3.4 0 11-0.6 18.8-5.9q-1.2-0.2-2.4-0.4-1.6 0.9-3.2 1.7z"/><path class="W" d="m289.1 360.4l-1.7-0.4c-3.5 13.5-10 23.4-18.8 28.9q1.2 0.2 2.4 0.4c7-4.8 14.1-13.5 18.1-28.9z"/><path class="h" d="m251.8 401.4c-1.4 0-1.2 0-1.2 0l0.2-1.7c0 0-0.2 0 1 0z"/><path class="W" d="m285.8 381.7l-1.5-0.9q-1.1 1.7-2.2 3.2l1.3 1.1q1.2-1.6 2.4-3.4z"/><path class="W" d="m289.7 374.6l-1.6-0.7q-0.8 1.8-1.8 3.5l1.5 0.8q1-1.7 1.9-3.6z"/><path class="h" d="m255.7 399.5l0.2 1.7q2.1-0.2 4.1-0.7l-0.4-1.6q-1.9 0.4-3.9 0.6z"/><path class="h" d="m292.7 367.1l-1.7-0.6q-0.6 1.9-1.3 3.8l1.6 0.6q0.7-1.9 1.4-3.8z"/><path class="W" d="m280.8 388.2l-1.3-1.1q-1.3 1.4-2.7 2.7l0.2 0.3q0.9 0.1 1.8 0.1 1-0.9 2-2z"/><path class="h" d="m263.4 397.8l0.5 1.6q2-0.7 3.8-1.5l-0.7-1.6q-1.8 0.9-3.6 1.5z"/><path class="h" d="m277.9 391.1q0.5-0.4 0.9-0.9-0.9 0-1.8-0.1z"/><path class="h" d="m270.5 394.5l0.9 1.5q1.7-1.1 3.4-2.3l-1.1-1.4q-1.5 1.2-3.2 2.2z"/><path class="h" d="m294.4 361.1l-1.6-0.4q-0.3 1-0.6 2l1.7 0.5q0.2-1 0.5-2.1z"/><path class="h" d="m343.5 387.1l-1.2 1.1q1.4 1.5 2.9 2.9l1.1-1.3q-1.4-1.3-2.8-2.7z"/><path class="h" d="m348.3 393.7q1.7 1.2 3.4 2.3l0.9-1.5q-1.7-1-3.3-2.2z"/><path class="h" d="m333.4 370.3q-0.7-1.9-1.4-3.8l-1.6 0.6q0.7 1.9 1.4 3.8z"/><path class="W" d="m336.7 377.4q-0.9-1.7-1.7-3.5l-1.6 0.7q0.9 1.9 1.9 3.6z"/><path class="h" d="m363.1 400.5q2 0.5 4.1 0.7l0.2-1.7q-2-0.2-3.9-0.6z"/><path class="h" d="m337.7 381.5q0.6-0.2 1.2-0.5-0.1-0.1-0.1-0.2z"/><path class="h" d="m337.3 381.7q1.2 1.8 2.4 3.4l1.3-1.1q-1.1-1.4-2.1-3-0.6 0.3-1.2 0.5z"/><path class="h" d="m355.4 397.9q1.8 0.8 3.8 1.5l0.5-1.6q-1.8-0.6-3.6-1.5z"/><path class="h" d="m330.9 362.7q-0.3-1-0.6-2l-1.6 0.4q0.2 1.1 0.5 2.1z"/><path class="h" d="m370.6 395.2c1.2 0 0.8-0.2 0.9-0.2l-0.2-1.7c-0.1 0-6 1-13.9-2.7-5.3-2.5-9.9-6.4-13.6-11.6q-0.8 0.3-1.6 0.6c10 14.3 23.5 15.6 28.4 15.6z"/><path class="W" d="m333.7 360.4c2.1 8.2 5.1 14.4 8.5 19.3q0.8-0.4 1.6-0.7c-3.7-5.2-6.5-11.5-8.4-19z"/><path class="I" d="m375.7 240.7c-12-20.1-8.8-73.4-6.2-75.6-4.7-1.7-26-8.1-36.7-11.1-1.8 12.4-0.6 14.8-12.7 20.5-5.3 2.6-4.3 1.2-9.7 0.8v1.1c-5 0.4-4.5 0.7-9.8-1.9-12-5.7-9.2-8.1-10.9-20.5-6.7 1.9-17.4 7.1-25.7 11.2-5 2.5-9.1 4.5-10.8 5.2 2.6 2.2 3.3-0.6 4.2 2.7 4.3 23.4 0 47.5-12 67.6 12.8 24.6 11.5 64.6 8.7 90.9-1.6 15.5-3.7 26.3-3.7 26.3 0 0 21.9 15.2 60 16.9v0.1q0.1-0.1 0.2-0.1 0 0.1 0.1 0.1v-0.1c24.7-1.1 42.6-7.9 52.1-12.5 5.2-2.5 7.9-4.4 7.9-4.4 0 0-9.3-70.8 3-111.3q0.9-3 2-5.9z"/><g clip-path="url(#cp3)"><g style="opacity:.1"><path fill-rule="evenodd" class="X" d="m230.5 156.6l10.1 10.2 10-10.2 10.1 10.2 10.1-10.2 10 10.2 10.1-10.2 10.1 10.2 10-10.2 10.1 10.2 10.1-10.2 10 10.2 10.1-10.2 10.1 10.2 10-10.2 10.1 10.2 10.1-10.2"/></g><g style="opacity:.1"><path fill-rule="evenodd" class="X" d="m230.5 173.7l10.1 10.3 10-10.3 10.1 10.3 10.1-10.3 10 10.3 10.1-10.3 10.1 10.3 10-10.3 10.1 10.3 10.1-10.3 10 10.3 10.1-10.3 10.1 10.3 10-10.3 10.1 10.3 10.1-10.3"/></g><g style="opacity:.1"><path fill-rule="evenodd" class="X" d="m230.5 190.9l10.1 10.2 10-10.2 10.1 10.2 10.1-10.2 10 10.2 10.1-10.2 10.1 10.2 10-10.2 10.1 10.2 10.1-10.2 10 10.2 10.1-10.2 10.1 10.2 10-10.2 10.1 10.2 10.1-10.2"/></g><g style="opacity:.1"><path fill-rule="evenodd" class="X" d="m230.5 208l10.1 10.3 10-10.3 10.1 10.3 10.1-10.3 10 10.3 10.1-10.3 10.1 10.3 10-10.3 10.1 10.3 10.1-10.3 10 10.3 10.1-10.3 10.1 10.3 10-10.3 10.1 10.3 10.1-10.3"/></g><g style="opacity:.1"><path fill-rule="evenodd" class="X" d="m230.5 225.2l10.1 10.2 10-10.2 10.1 10.2 10.1-10.2 10 10.2 10.1-10.2 10.1 10.2 10-10.2 10.1 10.2 10.1-10.2 10 10.2 10.1-10.2 10.1 10.2 10-10.2 10.1 10.2 10.1-10.2"/></g><g style="opacity:.1"><path fill-rule="evenodd" class="X" d="m230.5 242.3l10.1 10.3 10-10.3 10.1 10.3 10.1-10.3 10 10.3 10.1-10.3 10.1 10.3 10-10.3 10.1 10.3 10.1-10.3 10 10.3 10.1-10.3 10.1 10.3 10-10.3 10.1 10.3 10.1-10.3"/></g><g style="opacity:.1"><path fill-rule="evenodd" class="X" d="m230.5 259.5l10.1 10.2 10-10.2 10.1 10.2 10.1-10.2 10 10.2 10.1-10.2 10.1 10.2 10-10.2 10.1 10.2 10.1-10.2 10 10.2 10.1-10.2 10.1 10.2 10-10.2 10.1 10.2 10.1-10.2"/></g><g style="opacity:.1"><path fill-rule="evenodd" class="X" d="m230.5 276.6l10.1 10.3 10-10.3 10.1 10.3 10.1-10.3 10 10.3 10.1-10.3 10.1 10.3 10-10.3 10.1 10.3 10.1-10.3 10 10.3 10.1-10.3 10.1 10.3 10-10.3 10.1 10.3 10.1-10.3"/></g><g style="opacity:.1"><path fill-rule="evenodd" class="X" d="m230.5 293.7l10.1 10.3 10-10.3 10.1 10.3 10.1-10.3 10 10.3 10.1-10.3 10.1 10.3 10-10.3 10.1 10.3 10.1-10.3 10 10.3 10.1-10.3 10.1 10.3 10-10.3 10.1 10.3 10.1-10.3"/></g><g style="opacity:.1"><path fill-rule="evenodd" class="X" d="m230.5 310.9l10.1 10.2 10-10.2 10.1 10.2 10.1-10.2 10 10.2 10.1-10.2 10.1 10.2 10-10.2 10.1 10.2 10.1-10.2 10 10.2 10.1-10.2 10.1 10.2 10-10.2 10.1 10.2 10.1-10.2"/></g><g style="opacity:.1"><path fill-rule="evenodd" class="X" d="m230.5 328l10.1 10.3 10-10.3 10.1 10.3 10.1-10.3 10 10.3 10.1-10.3 10.1 10.3 10-10.3 10.1 10.3 10.1-10.3 10 10.3 10.1-10.3 10.1 10.3 10-10.3 10.1 10.3 10.1-10.3"/></g><g style="opacity:.1"><path fill-rule="evenodd" class="X" d="m230.5 345.2l10.1 10.2 10-10.2 10.1 10.2 10.1-10.2 10 10.2 10.1-10.2 10.1 10.2 10-10.2 10.1 10.2 10.1-10.2 10 10.2 10.1-10.2 10.1 10.2 10-10.2 10.1 10.2 10.1-10.2"/></g><g style="opacity:.1"><path fill-rule="evenodd" class="X" d="m230.5 362.3l10.1 10.3 10-10.3 10.1 10.3 10.1-10.3 10 10.3 10.1-10.3 10.1 10.3 10-10.3 10.1 10.3 10.1-10.3 10 10.3 10.1-10.3 10.1 10.3 10-10.3 10.1 10.3 10.1-10.3"/></g></g><path class="Y" d="m295.6 250.8c4.4-26.2-18.3-45.4-27.9-68.1-2-5.4-3.5-11.4-3.7-17.5-5 2.5-9.1 4.5-10.8 5.2 2.6 2.2 3.3-0.6 4.2 2.7 4.3 23.4 0 47.5-12 67.6 12.8 24.6 11.5 64.6 8.7 90.9 3.6-9.1 8-17.8 12.8-25.9 10.4-19.2 25.2-34 28.7-54.9z"/><path class="Y" d="m373.7 246.6c-18.6 34.7-19.9 77.2-10.9 115.7 5.2-2.5 7.9-4.4 7.9-4.4 0 0-9.3-70.8 3-111.3z"/><path class="d" d="m215.2 254.5l-16.6-46.5 49.7-41.6c0 0 1.2-0.5 3.3-1.3 2.6 2.2 4.9 4.7 5.8 8 4.3 23.4 0 47.5-12 67.6q-0.6-0.8-1.3-1.5z"/><path class="d" d="m311.2 177.6q-0.5 0-1 0c-7-0.2-12.5-2.4-16.4-6.4-6.7-6.9-6-16-6-16.4l4.6-1.5c0 0-0.8 8.6 4.7 14.3 3.1 3.2 7.4 4.9 13.3 5.1 5.7 0.2 10.1-0.9 13.5-4 6.4-5.8 6.4-15.3 6.4-15.4l4.3 1.1c0 0.5-0.1 10.8-7.7 17.7-4 3.6-9.3 5.5-15.7 5.5z"/><path class="Y" d="m331.2 284.9c-15.2 23.9-37 43.6-62.3 56.3 16.9-0.6 33-9.1 44.6-21.5 11.5-12.3 18.9-28.2 22.9-44.7z"/><path class="B" d="m370.8 181.4c1.2 0.6 2.7 1.3 4 0.7 1.3-0.7 1.7-2.5 1.2-3.9-0.5-1.4-1.7-2.4-2.9-3.3-3-2.3-12.7-9.2-16.2-4.7-3.7 4.9 10.7 9.5 13.9 11.2z"/><path class="K" d="m289.3 161.5q-0.2 2.4-0.5 4.8c-0.1 1.1-0.3 2.1-0.6 3-0.6 1.3-1.7 2.2-3 2.4-0.8 0.1-1.8-0.2-2.4-1.2-0.3-0.5-0.5-1.1-0.6-1.7-1.2-5.3-2.6-13.6 0.8-17.3 1.4-1.5 3.3-1.5 4.8 0.4 1.9 2.6 1.7 6.7 1.5 9.6z"/><path class="K" d="m281.6 169.9c-0.6 1.4-1.7 2.3-2.9 2.4-0.9 0.1-1.8-0.2-2.4-1.1-0.4-0.5-0.5-1.2-0.7-1.8-1.2-5.3-2.5-13.6 0.9-17.3 1.3-1.5 3.2-1.5 4.7 0.5 2 2.5 1.8 6.6 1.6 9.5q-0.2 2.5-0.5 4.9c-0.2 1-0.3 2-0.7 2.9z"/><path class="K" d="m276.8 164.4q-0.2 2.5-0.5 4.8c-0.1 1.1-0.3 2.1-0.6 3-0.6 1.4-1.7 2.3-3 2.4-0.8 0.1-1.8-0.2-2.4-1.1-0.3-0.6-0.5-1.2-0.6-1.8-1.2-5.3-2.6-13.6 0.8-17.3 1.4-1.5 3.2-1.5 4.8 0.5 1.9 2.5 1.7 6.6 1.5 9.5z"/><path class="K" d="m270.5 165.6q-0.2 2.4-0.5 4.8c-0.1 1.1-0.3 2.1-0.7 3-0.6 1.3-1.7 2.2-2.9 2.4-0.8 0.1-1.8-0.2-2.4-1.2-0.3-0.5-0.5-1.1-0.7-1.7-1.2-5.3-2.5-13.6 0.9-17.3 1.3-1.5 3.2-1.5 4.7 0.4 2 2.6 1.8 6.7 1.6 9.6z"/><path class="F" d="m269.9 157.2c-0.1 1.4-0.2 2.7-0.2 4-0.1 1.3 0 2.6 0 3.9 0.1 1.3 0.2 2.6 0.2 3.9q0.1 1 0.1 2c0.1 0.7 0.1 1.4 0.1 2.1-0.3-0.6-0.6-1.3-0.9-1.9-0.2-0.6-0.4-1.3-0.6-2-0.3-1.3-0.5-2.7-0.6-4q-0.1-2.1 0.4-4.2c0.3-1.3 0.7-2.7 1.5-3.8z"/><path class="F" d="m275.7 153.3c0 1.6-0.2 3-0.2 4.5q-0.2 2.1-0.2 4.3 0 2.1 0.1 4.3c0.2 1.4 0.4 2.8 0.7 4.3-1-1.2-1.6-2.6-2-4.1q-0.5-2.3-0.5-4.5c0.1-3.1 0.7-6.1 2.1-8.8z"/><path class="F" d="m282.5 152.2c-0.5 1.3-0.6 2.5-0.7 3.8q-0.1 1.8-0.1 3.7c0 0.6 0 1.3 0 1.9q0.1 0.9 0.1 1.9c0 0.6 0 1.3 0 1.9 0 0.7 0.1 1.4 0 2q-0.9-1.8-1.3-3.7c-0.2-0.7-0.2-1.3-0.4-2q-0.1-1-0.1-2c0-1.3 0.1-2.7 0.5-4 0.4-1.3 0.9-2.6 2-3.5z"/><path class="J" d="m432.6 277.5c-5.9 0-11.7-1.4-16.8-4.2-2.8-1.5-4.9-3.2-6.4-5.2-3-3.8-4.1-9.1-3.3-15.5 0.5-4.6 1.9-8.2 4-11 0.6-0.8 1.3-1.5 1.9-2.2 1-1.1 2-2.1 2.1-3l0.3-1.5 4.4-3.2c4.1-4.3 9.5-6.7 15-6.7q0.4 0 0.7 0c6.6 0.2 12.6 4.3 15 10 1.2 3.1 1.4 6.2 1.5 9 0.1 1.9 0.2 3.7 0.5 5.2 0.4 1.4 1 2.9 1.6 4.4 0.5 1.1 1 2.3 1.5 3.6 1.5 4.5 1.3 8.6-0.6 11.7-1.7 2.9-4.7 4.5-6.7 5.4-4.5 2.1-9.6 3.2-14.7 3.2q0 0 0 0z"/><path class="Z" d="m433.8 221.3c-6.4-0.1-12.7 2.7-17.4 7.6l-2.9 2-2.6 1.9-0.4 2.7c-0.2 0.4-0.8 1-1.2 1.4-0.7 0.7-1.4 1.5-2.1 2.4-2.6 3.3-4.2 7.5-4.8 12.9-0.9 7.4 0.5 13.5 4 18.2 1.9 2.3 4.4 4.4 7.7 6.2 5.6 3 12 4.6 18.5 4.6 5.7 0 11.3-1.2 16.3-3.5 2.4-1.1 6-3.1 8.3-6.9 2.4-4.1 2.7-9.2 0.9-14.8-0.5-1.4-1.1-2.7-1.6-3.9-0.5-1.3-1.1-2.6-1.3-3.7-0.3-1.3-0.4-2.9-0.5-4.5-0.1-3.1-0.3-6.7-1.8-10.3-2.9-7.1-10.2-12-18.2-12.3q-0.5 0-0.9-0.1zm0 7.5q0.3 0 0.6 0c4.9 0.2 9.8 3.2 11.6 7.7 1.8 4.3 0.9 9.2 1.9 13.7 0.7 2.9 2.2 5.5 3.2 8.3 0.9 2.8 1.2 6.1-0.3 8.6-1.1 1.9-3.1 3.1-5.1 4-4 1.9-8.5 2.8-13.1 2.8-5.2 0-10.4-1.2-15-3.7-2-1.1-3.9-2.5-5.3-4.3-2.7-3.5-3.1-8.3-2.5-12.8 0.4-3.2 1.2-6.5 3.2-9.1 1.8-2.3 4.4-4.1 4.8-7l3.4-2.4c3.3-3.5 7.9-5.8 12.6-5.8z"/><path class="a0" d="m407.2 175.9c-3-1.3-6.4 0.6-8.9 2.8-10.6 9.5-13.9 26.4-7.5 39.1 1.9 3.8 4.4 7.1 6.3 10.8 1.9 3.7 3.2 8.1 2.1 12.1-1.1 4.3-4.7 7.5-8.3 10.1-3.7 2.6-7.7 4.8-10.5 8.2-2.9 3.5-4.3 8.6-2.1 12.4 2.6 4.6 8.7 5.3 13.7 6.9 1.9 0.5 3.9 1.5 4.2 3.4 0.4 2-1.3 3.7-3 4.6-1.8 0.8-3.9 1.1-5.5 2.2-3 1.8-4.1 5.6-4.3 9.1-0.5 7 1.8 14.1 6.3 19.4 4.4 5.4 11 8.9 17.9 9.8 3.6 0.4 7.3 0.1 10.4-1.7 3.1-1.9 5.3-5.5 4.7-9-0.5-3.3-3.1-5.8-4.2-9-1-3.2-0.2-7 2.1-9.4 2-2 4.7-3 7-4.5 4.8-3.2 7.9-8.7 8.1-14.5 0.2-5.7-2.5-11.4-7.1-14.9-3.5-2.7-11-6.6-13.4-10.3-2.2-3.5 3.6-4.3-0.8-13-1.5-3 9.4-0.9 11.5-3.6 4.4-5.4 4.2-14.1-0.4-19.3-2.2-2.5-5.1-4.1-7.9-6-3.7-2.4-7.4-5.8-7.9-10.2-0.4-4.3 2.3-8.2 4-12.2 1.8-4 2-9.6-1.8-11.8-3.1-1.7-4.7-1.5-4.7-1.5z"/><path class="a0" d="m491.5 248.7c-4-2.1-8.6-2.9-12.7-4.6-4.2-1.7-8.3-4.9-9-9.4-1.1-7 6.3-13.2 5.2-20.2-0.8-4.8-5.4-7.9-9.2-10.9-5.3-4.2-10-9.2-13.8-14.8-3.5-5.1-6.3-10.9-11.2-14.8-6-4.7-14.7-5.7-21.6-2.4-1.2 0.6-2.5 1.4-3.2 2.5-1.4 2.1-0.7 5 0.5 7.2 1.3 2.3 3.1 4.2 5.1 5.9 6.5-0.3 13.1-1.2 19.7-0.8 6 0.6 12.1 3.3 14.1 9.4 2.5 7.1 0.3 13.8-3.8 19.7 6.6 10.4-1.6 23.5 0.3 35.2 1.3 6.8 13.6 3.7 19 7.8 6.6 5.9 2.9 16.3-4.1 21.2-1.9 2.3-4.1 4.5-5.9 7-4.9 7.1-5.7 16.8-2.1 24.5 3.6 7.8 11.5 13.5 20 14.3 5.5 0.6 12.1-1.6 13.5-7 1-3.7-0.9-7.4-1.9-11.1-1.8-6.7-0.7-14.1 2.9-20 2.1-3.4 5-6.4 6.9-10 5.3-9.7 1.2-23.5-8.7-28.7z"/><path class="a1" d="m457.5 195.8c-2-6.1-10.2-8.8-16.2-9.4-6.6-0.4-13.2 0.5-19.7 0.8 4.4 3.5 10 6 14.6 9.5 6.8 5.2 11.5 13.1 13 21.5 0 0.1 4.5 27.3 4.5 27.4 0.9-12.6 8.7-20 9.6-25.7 1.9-11.3-3.6-17.7-5.8-24.1z"/><path class="a1" d="m470.9 258.5c-5.4-4.1-15.5-1.4-16.8-8.1-1.9-11.7 4.1-24.5-2.5-34.9q-1.1 1.6-2.4 3c0.7 3.4 1.2 7.3 0.6 10.8-0.7 4.5-3.3 8.6-4.8 12.8-1.8 5-2.2 11.4 1.6 15 3.1 2.9 7.7 3.1 11.9 3.4 4.1 0.2 8.8 1 11.2 4.5 2.4 3.4 1.3 8.3-0.9 11.9q-0.9 1.4-2 2.8c7-4.9 10.7-15.3 4.1-21.2z"/><path fill-rule="evenodd" class="K" d="m438 246c-13.4 4.8-29.4-5.7-35.8-23.4-6.3-17.8-0.6-36 12.8-40.8 13.4-4.8 29.3 5.7 35.7 23.4 6.3 17.8 0.6 36-12.7 40.8z"/><path class="a0" d="m409.8 187.4c3.3 2.5 7.8 3 12 2.9 4.9-0.1 9.7-0.9 14.6-1 4.9 0 9.9 0.8 13.9 3.7 3.9 2.9 5.1 7.6 4.9 12.8 2.9-7.9 3.8-16 2.2-23.8-1.5-7.5-6-14.3-12.3-18.7-6.2-4.4-14.2-6.2-21.7-5.1-6.4 1-13.7 5-16.7 11-2.9 5.9-2.5 14.1 3.1 18.2z"/><path class="E" d="m422.8 278c-0.1 1.2-0.7 2.2-1.3 3.1-0.6 0.9-1.1 1.8-1.3 2.9-0.1 1 0.2 2.2 1.1 2.8 0.6 0.4 1.3 0.4 2.1 0.3 1.9-0.3 3.6-1.8 4.6-3.5 0.9-1.8 1.2-3.9 1.1-5.9-0.1-3-1.6-9-5.8-7.8-4.6 1.3-0.2 5.4-0.5 8.1z"/><path class="E" d="m490.3 269.6c-0.1 1.3-0.4 2.8 0.6 3.6 0.6 0.5 1.5 0.4 2.2 0.1 0.6-0.4 1.1-1 1.5-1.6 2.2-3.7 1.8-12.3-4-12.2-7.1 0.2-0.2 7-0.3 10.1z"/><path class="E" d="m409.6 319.4c-0.4 0.4-1 0.6-1.6 0.8-0.5 0.2-1 0.7-1.1 1.3 0 0.8 1 1.3 1.8 1.5 1.1 0.3 2.2 0.5 3.3 0.3 1.1-0.1 2.2-0.6 2.8-1.6 1.2-1.8 1.6-6.7-1.1-7.4-3.5-0.9-2.5 3.8-4.1 5.1z"/><path class="E" d="m482.7 316.7c-0.4 0.4-1 0.6-1.5 0.8-0.5 0.2-1.1 0.7-1.1 1.3 0 0.8 1 1.3 1.8 1.5 1.1 0.3 2.2 0.5 3.3 0.3 1.1-0.1 2.2-0.6 2.8-1.6 1.1-1.8 1.6-6.7-1.2-7.4-3.4-0.9-2.5 3.7-4.1 5.1z"/><path class="E" d="m438.2 172.3c1.5 1 3 2.5 4.8 2.6 0.7 0.1 1.4-0.1 1.8-0.6 0.8-0.9 0.2-2.3-0.5-3.3-2.6-3.6-8.3-8.4-13.2-6.4-6.4 2.6 5.4 6.7 7.1 7.7z"/><path class="D" d="m188.9 223.1c-6.2 9.3-12.1 19.2-14.3 30.2-2.2 11.1 0.1 23.6 8.4 31.2 6.7 6.1 16.6 8.2 25.2 5.5 8.7-2.6 15.7-9.7 18.5-18.2 1.4-4.2 1.9-8.7 1.7-13.1-0.5-13.9-7.1-27.6-18-36.1"/><path class="D" d="m193.2 164c-5.8 10.1-5.2 29.3-3 36.6 6.7 21.6-6.6 23.6-4 29.9 2.5 6.3 15.4 2.1 20.8 6.2 2.6 2.1 5.8 3.8 9.1 3.9 0.6 0 1.1-0.1 1.6-0.3 1.1-0.6 1.2-2.1 1.3-3.3 0.1-14.5-3.1-29-9.5-42.1-3-6.3-7.4-12.8-14.1-14.8"/><path class="a2" d="m255.5 194.1c-2-4-2.9-8.1-3.1-12.3-2.1 5.3-3.4 10.5-2.6 13.2 0.9 2.6 2 5.1 2.8 7.8 2.2 7.5-0.5 14.3-3.5 21.5-1.4 3.3-8.3 1.9-8.9 5.5-0.7 3.4-0.9 5-0.5 8.4 0.3 2.8 4.5 14.8 5.7 17.2 0.8 1.6 1.3 5.6 2.5 6.7 4.2 3.7 12 3.2 18.4 1.2 14-19.1-1.2-48.5-10.8-69.2z"/><path class="a3" d="m280.6 218.1c-3.1-7.4-11-14.4-13.9-32.1-3-17.7 2.6-27.5-3.6-22.1-3.1 2.7-7.7 10.5-10.7 17.9 0.2 4.2 1.1 8.3 3.1 12.3 9.6 20.7 24.8 50.1 10.8 69.2 2.2-0.7 4.3-1.6 5.9-2.5 6.5-3.5 10.8-11 11.9-19 1.2-8-0.4-16.3-3.5-23.7z"/><path class="a4" d="m441.9 197.9c-1.1-0.5-2-0.9-2.8-1.3q-1.3-0.6-2.6-0.9c-0.4-0.1-0.8-0.2-1.2-0.3-0.4 0-0.8 0-1.3 0-0.4 0-0.9 0.1-1.4 0.1-0.5 0-1 0.2-1.6 0.2 0.6-1 1.4-1.8 2.6-2.2 0.5-0.3 1.1-0.4 1.7-0.5q0.5 0 1 0.1c0.3 0 0.6 0.1 0.9 0.1 1.1 0.3 2.2 0.9 3 1.7 0.8 0.9 1.4 1.8 1.7 3z"/><path class="a4" d="m410.1 206.1c-0.4-1-0.4-2.2-0.2-3.3 0.3-1.2 0.9-2.2 1.7-3.1 0.2-0.2 0.4-0.5 0.7-0.6q0.4-0.3 0.8-0.6c0.5-0.2 1.1-0.5 1.7-0.5 1.2-0.3 2.4 0 3.4 0.5-0.6 0.3-1.1 0.4-1.5 0.7-0.4 0.2-0.9 0.4-1.3 0.7-0.4 0.2-0.7 0.5-1 0.7-0.4 0.3-0.7 0.5-1 0.8q-0.8 0.9-1.6 2.1c-0.6 0.8-1.1 1.7-1.7 2.6z"/><path class="D" d="m434.1 204q-0.1 0.5 0 1.1c0.3 1.9 1.7 3.3 3.1 3.1 1-0.2 1.8-1.1 2-2.3-1.7 0.6-3.9 0-5.1-1.9z"/><path class="a5" d="m439.3 204.4c-0.3-1.9-1.7-3.3-3.1-3.1-1.2 0.2-2 1.3-2.1 2.7 1.2 1.9 3.4 2.5 5.1 1.9q0.2-0.7 0.1-1.5z"/><path class="a5" d="m419.8 208.5c-0.5-1.8-2.1-3-3.5-2.5-1 0.3-1.6 1.4-1.7 2.7 1.4 1.5 3.3 2.3 5.3 2.2 0.2-0.7 0.2-1.5-0.1-2.4z"/><path class="D" d="m414.6 208.7q0 0.6 0.2 1.3c0.6 1.9 2.2 3 3.5 2.6 0.8-0.2 1.3-0.9 1.6-1.7-2 0.1-3.9-0.7-5.3-2.2z"/><path class="L" d="m427.8 219.9c-0.5-0.9-0.6-1.9-0.6-3q0.1-0.7 0.5-1.5c0.2-0.5 0.6-1 1.1-1.4 0.5-0.3 1.2-0.5 1.9-0.5 0.6 0.1 1.2 0.4 1.6 0.8 0.8 0.7 1.3 1.7 1.4 2.7-0.7-0.7-1.4-1.3-2.2-1.6-0.7-0.4-1.2-0.3-1.7 0-0.6 0.4-1 1-1.3 1.8-0.3 0.8-0.5 1.7-0.7 2.7z"/><path class="G" d="m439.9 223.8c0 0-7.9 5.6-17.9 4 0 0 4.7 6.8 12 5.6 6.5-1.1 5.9-9.6 5.9-9.6z"/><path class="h" d="m432.2 234.4c-6.6 0-10.7-5.8-10.9-6.1l-1.1-1.6 1.9 0.3c9.6 1.5 17.3-3.9 17.3-3.9l1.3-0.9 0.1 1.5c0.2 3.2-0.9 9.6-6.6 10.5q-1 0.2-2 0.2zm-8.1-5.5c1.8 1.8 5.3 4.4 9.8 3.7 4.2-0.7 5-5 5.2-7.3-2.5 1.4-8.2 4-15 3.6z"/><path class="a6" d="m422.1 219.1c-0.2 1.9-2.8 3.3-5.7 3-3-0.3-5.3-2.1-5.1-4.1 0.2-1.9 2.8-3.2 5.8-2.9 2.9 0.2 5.2 2.1 5 4z"/><path class="a6" d="m438 212.9c1 1.7 3.8 1.9 6.4 0.4 2.6-1.5 3.9-4.1 2.9-5.8-1-1.7-3.8-1.8-6.4-0.3-2.6 1.4-3.9 4-2.9 5.7z"/><path class="G" d="m418.3 207.3c0 0.5-0.4 0.9-0.9 0.9-0.4 0-0.8-0.4-0.8-0.9 0-0.4 0.4-0.8 0.8-0.8 0.5 0 0.9 0.4 0.9 0.8z"/><path class="G" d="m437.5 202.5c0 0.5-0.4 0.9-0.9 0.9-0.4 0-0.8-0.4-0.8-0.9 0-0.4 0.4-0.8 0.8-0.8 0.5 0 0.9 0.4 0.9 0.8z"/><path class="a0" d="m406 199.4c-2 5.9-3.1 12.5-0.7 18.3 0.9 2.1 2.2 4 3.6 5.8 3 4.2 6.3 8.3 7.9 13.2 1.7 4.9 1.3 10.9-2.4 14.5-1.6 1.7-4.2 2.7-6.1 1.6-1.4-0.8-2-2.4-2.4-3.9-0.9-3.4-0.8-7.1-1.4-10.6-1.1-6.8-4.5-13-7.3-19.3-2.7-6.3-4.8-13.4-2.9-20 1.3-4.9 6.1-13.4 11.4-14.9 7.1-2.1 1.2 12.6 0.3 15.3z"/><path class="a1" d="m408.3 192.4c-7.4-4-3.3-17-3.3-17 0 0-1.1 7.5 4.1 11.5 0 0 0.1 2.2-0.7 5.1z"/><path class="F" d="m322.8 112.1c-0.9 0-0.9-1.3 0-1.3 0.9 0 0.9 1.3 0 1.3z"/><path class="F" d="m326 114.3c-0.9 0-0.9-1.3 0-1.3 0.8 0 0.8 1.3 0 1.3z"/><path class="F" d="m321.8 116.2c-0.8 0-0.8-1.3 0-1.3 0.9 0 0.9 1.3 0 1.3z"/><path class="F" d="m299.1 112.1c0.9 0 0.9-1.3 0-1.3-0.9 0-0.9 1.3 0 1.3z"/><path class="F" d="m295.9 114.3c0.9 0 0.9-1.3 0-1.3-0.8 0-0.8 1.3 0 1.3z"/><path class="F" d="m300.1 116.2c0.8 0 0.8-1.3 0-1.3-0.9 0-0.9 1.3 0 1.3z"/><path class="K" d="m548.3 182.3q0.2 2.4 0.5 4.8c0.2 1.1 0.3 2.1 0.7 3 0.6 1.3 1.7 2.2 2.9 2.4 0.9 0.1 1.9-0.3 2.4-1.2 0.4-0.5 0.5-1.1 0.7-1.7 1.2-5.3 2.5-13.6-0.9-17.3-1.3-1.5-3.2-1.5-4.7 0.4-2 2.5-1.8 6.7-1.6 9.6z"/><path class="K" d="m554.9 182.9q0.2 2.5 0.5 4.9c0.1 1 0.3 2 0.7 2.9 0.5 1.4 1.6 2.3 2.9 2.4 0.8 0.1 1.8-0.2 2.4-1.1 0.3-0.5 0.5-1.2 0.6-1.8 1.3-5.3 2.6-13.6-0.8-17.3-1.4-1.5-3.2-1.5-4.8 0.5-1.9 2.5-1.7 6.6-1.5 9.5z"/><path class="K" d="m560.9 185.2q0.1 2.4 0.4 4.8c0.2 1.1 0.3 2.1 0.7 3 0.6 1.3 1.7 2.2 2.9 2.4 0.9 0.1 1.9-0.2 2.4-1.1 0.4-0.6 0.5-1.2 0.7-1.8 1.2-5.3 2.5-13.6-0.8-17.3-1.4-1.5-3.3-1.5-4.8 0.5-2 2.5-1.8 6.6-1.5 9.5z"/><path class="K" d="m567.2 186.4q0.2 2.4 0.5 4.8c0.1 1 0.3 2.1 0.6 3 0.6 1.3 1.7 2.2 3 2.4 0.8 0 1.8-0.3 2.4-1.2 0.3-0.5 0.5-1.1 0.6-1.7 1.3-5.3 2.6-13.6-0.8-17.3-1.4-1.5-3.2-1.5-4.8 0.4-1.9 2.5-1.7 6.7-1.5 9.6z"/><path class="F" d="m567.7 178c0.9 1.1 1.3 2.5 1.6 3.8q0.4 2.1 0.3 4.2c0 1.3-0.2 2.7-0.5 4-0.2 0.7-0.4 1.3-0.7 2-0.2 0.6-0.5 1.3-0.8 1.9-0.1-0.7 0-1.4 0-2.1q0.1-1 0.1-2c0.1-1.3 0.2-2.6 0.2-3.9 0.1-1.3 0.1-2.6 0.1-3.9-0.1-1.3-0.1-2.6-0.3-4z"/><path class="F" d="m562 174.1c1.3 2.7 2 5.7 2.1 8.7q0 2.3-0.6 4.6c-0.3 1.4-1 2.9-1.9 4.1 0.3-1.5 0.5-2.9 0.6-4.4q0.2-2.1 0.2-4.2-0.1-2.2-0.2-4.3c-0.1-1.5-0.2-3-0.2-4.5z"/><path class="F" d="m555.1 173c1.1 0.9 1.7 2.2 2.1 3.5q0.5 2 0.5 4-0.1 1-0.2 2c-0.1 0.7-0.2 1.3-0.3 2q-0.4 1.9-1.3 3.7c-0.1-0.7-0.1-1.3-0.1-2 0-0.6 0-1.3 0.1-1.9q0-1 0-1.9c0-0.7 0.1-1.3 0.1-1.9q0-1.9-0.1-3.8c-0.1-1.2-0.2-2.4-0.8-3.7z"/><path class="a7" d="m157 300.4q-1.7-3.6-3.1-7.5c-13.2 6.6-29.3 14.3-43.1 32.4-33.4 43.5-12.7 174.7-12.7 174.7h46.3c-27.6-49.1-31.7-164.5 12.6-199.6z"/><path class="M" d="m210.4 345.2c-23-7.5-43.1-23.2-53.4-44.8-44.3 35.1-40.2 150.5-12.6 199.6h92c0 0-36.2-86.4-26-154.8z"/><path class="a8" d="m162.8 288.3c-2.7 1.6-5.7 3.1-8.9 4.6q1.4 3.9 3.1 7.5 4-3.2 8.5-6-1.5-3-2.7-6.1z"/><path class="a9" d="m210.4 345.2q1-4.9 2.4-9.3c-20.5-6-37.8-21.5-47.3-41.5q-4.5 2.8-8.5 6c10.3 21.6 30.4 37.3 53.4 44.8z"/><path class="aa" d="m246.8 254.5q0-0.1 0-0.1c-0.1 0.4-0.4 1.6-1.6 4.2-2.6 5.7-14.2 5.8-19 1.1-3.7-3-6.3-6.6-8-10.5-9.7 16.1-25.3 28.3-45.4 25.4-2.3 1.7-5.1 3.2-8.1 4.8-2.8 1.5-4.1 5-2.8 8 10.1 24.6 28.7 41.5 47.7 49.1 3.4 1.3 7.1-0.4 8.3-3.8 4.9-14.4 10.7-27.3 19-33.9 24.6-19.4 15.5-30.4 9.9-44.3z"/><path class="aa" d="m246.8 254.4c0-0.4-0.1-0.3 0 0z"/><path class="ab" d="m218.2 249.2c-3.9-8.6-3.9-19-4.6-28.8-2.2 0.3-5 0.2-8.2-0.5-17.8-4-25.8 26.8-25.8 26.8 3.3 16.1-0.2 23-6.8 27.9 20.1 2.9 35.7-9.3 45.4-25.4z"/><path class="h" d="m236.4 274.3c-0.7-1.2-2-2.4-3.4-2-0.6 0.2-1.1 0.8-1.5 1.4-1 1.6-1.2 3.7-0.9 5.6 0.2 1.9 0.9 3.7 1.6 5.5q0.8 2.1 1.6 4.3c2.5-1.4 5.6-1.9 8-3.5 2.4-1.7 3.9-4.5 4-7.4 0-0.6 0-1.2-0.2-1.8-0.9-1.9-3.4-1.1-4.8 0-1.7 1.4-2.6 3.6-2.6 3.6 0 0-0.5-3.8-1.8-5.7z"/><path class="ac" d="m116.6 235.2q-0.1 0.8-0.2 1.7c0 0 21.7 13.9 52.1 18.5 2.1-1.6 3.9-3.4 5.2-5.2q0.5-0.8 1-1.7c-19.6 0-40-6.1-58.1-13.3z"/><path class="ad" d="m175.4 221.6c-9.8 0.2-20.8-0.1-28.8-1.6l3.7-47.7c6.7-1.9 12.5-14.4 13.6-16.3 1.1-2 8.8 2.1 4.7-3.1-4-5.1-7.9-3-10.7 0.9-2.8 3.9-6.5-0.4-6.5-3.2 0-2.8-1.5-8.2-1.5-8.2 0 0-1.9-19.6-4.1-18.3-2.1 1.3 0 16.6 0 16.6l-0.2 0.3c-0.6 0.7-1.6 0.7-2.2 0l-0.6-0.8c0 0-5.4-21.1-7.3-19.8-2 1.3 2.8 23.1 2.8 23.1v0.1c0 0.9-0.9 1.6-1.7 1.4h-0.1c0 0-8.6-19.2-10.5-17.5-1.9 1.8 5.2 19.2 5.2 19.2v0.9c0 1-1.1 1.7-2 1.3 0 0-9.9-17.7-9.9-11.7 0 6.1 9.7 19.2 9.7 19.2 1.3 10.8 6.7 15.9 6.7 15.9 0 0-14.5 30.8-19.1 62.9 18.1 7.2 38.5 13.3 58.1 13.3 4.6-8.3 7.5-19.3 0.7-26.9z"/><path class="ae" d="m173.7 250.2c-1.3 1.8-3.1 3.6-5.2 5.2 5.3 0.8 10.8 1.3 16.5 1.4 9.7 0.3 21.7-4.9 23.6-14.5q0.1-0.9 0.3-1.8c-10.6 5.7-22.2 8-34.2 8q-0.5 0.9-1 1.7z"/><path class="a4" d="m202.6 219.3c0 0-15.3 2.2-27.2 2.3 6.8 7.6 3.9 18.6-0.7 26.9 12 0 23.6-2.3 34.2-8 1.4-8.3 2-19-6.3-21.2z"/><path class="ac" d="m138.1 237.4c1.2-2.5 9.1-27.7 9.4-29.1 0.1 1.4-0.2 11.8-0.2 11.8l4.8 0.7c0 0-4.4 8.6-14 16.6z"/><path class="af" d="m144.5 156.2c-2.7 1.8-5.4 4.1-6.5 7.2 2-2.9 5.1-4.6 8-6.4 0.6-0.3 3.5-1.7 2.7-2.9-0.4-0.7-3.5 1.6-4.2 2.1z"/><path class="ad" d="m223.3 213.9c-1.3 2.7-4.1 5.9-9.7 6.5 1.1 14.2 0.6 29.7 12.6 39.3 4.8 4.7 17 6.3 20.3 0.8 2.1-3.7-0.3-6.3-0.9-9.2-0.9-2.9-4.1-7.8-4.1-10.6q0.1-2.2 0.5-4.2c-8.9-4.3-15.6-13.5-18.7-22.6z"/><path class="ag" d="m242 236.5c1.7-9 8.4-15 8.4-15l-25.8-11.4c0 0-0.2 1.7-1.3 3.8 3.1 9.1 9.8 18.3 18.7 22.6z"/><path class="ad" d="m228.3 219.9c5.3 4.7 12.7 7.4 19.6 6.9 3.2-0.3 6.2-1.2 8.9-3 5.1-3.2 8.4-8.8 9.6-14.7 1.3-6 0.6-12.1-0.9-18-0.5-2.3-1.3-4.6-1.6-6.9-0.6-3.5-0.3-7.1-1-10.6-1.3-6-5.8-11.2-11.5-13.3-4.1-1.5-8.7-1.5-13.1-1.2-8.1 0.7-16.7 3.1-21.4 9.6-5.2 7.4-3.7 18-2.5 26.4 1.3 8.9 7.2 18.9 13.9 24.8z"/><path class="a3" d="m230.7 189.3c-0.4-1.1-0.3-2.2-0.1-3.3 0.2-1.1 0.8-2.2 1.6-3.1 0.2-0.2 0.3-0.4 0.6-0.6q0.3-0.3 0.7-0.5c0.5-0.3 1.1-0.6 1.6-0.7 0.6-0.1 1.2-0.1 1.7-0.1 0.6 0 1.1 0.1 1.7 0.3-0.6 0.3-1 0.4-1.5 0.6-0.5 0.3-0.9 0.4-1.3 0.7-0.4 0.2-0.7 0.5-1.1 0.8-0.3 0.3-0.7 0.5-0.9 0.9q-0.9 1-1.6 2.2c-0.5 0.9-0.9 1.8-1.4 2.8z"/><path class="a3" d="m262 182.8c-0.8-0.8-1.5-1.4-2.3-2q-1.1-1-2.3-1.5c-0.4-0.2-0.8-0.4-1.2-0.5-0.5-0.1-0.9-0.3-1.4-0.3-0.4-0.1-0.9-0.1-1.4-0.1-0.5-0.1-1 0-1.6 0 0.4-0.4 0.9-0.7 1.4-1 0.5-0.2 1-0.4 1.6-0.5 0.6-0.1 1.2 0 1.8 0q0.4 0.1 0.8 0.2c0.3 0.1 0.6 0.2 0.9 0.3 1 0.6 1.9 1.4 2.6 2.3 0.6 0.9 1 1.9 1.1 3.1z"/><path class="a3" d="m233.9 193.5c-0.2 0.6-0.1 1.3 0 1.9 0.5 1.9 2.1 3.1 3.5 2.7 0.9-0.3 1.6-1.2 1.7-2.4q-0.1 0.1-0.1 0.1c-1.7 0.9-4.2 0.1-5.1-2.3z"/><path class="ah" d="m239 194.1c-0.5-1.9-2-3.1-3.4-2.7-0.9 0.2-1.5 1.1-1.7 2.1 0.9 2.4 3.4 3.2 5.1 2.3q0 0 0.1-0.1 0.1-0.8-0.1-1.6z"/><path class="ah" d="m257.3 190.6c1.1 0.6 2.3-0.4 3.2-1.6-0.1-1.8-1.3-3.2-2.6-3.2-1.3 0-2.3 1.1-2.6 2.6 0.3 0.9 1.3 1.6 2 2.2z"/><path class="a3" d="m257.3 190.6c-0.7-0.6-1.7-1.3-2-2.2q-0.1 0.4-0.1 0.9c0 1.9 1.2 3.4 2.7 3.4 1.4 0 2.6-1.5 2.6-3.4q0-0.1 0-0.3c-0.9 1.2-2.1 2.2-3.2 1.6z"/><path class="ai" d="m247.1 197.4c0.3-1 0.9-1.8 1.6-2.5q0.6-0.5 1.5-0.8c0.5-0.2 1.1-0.3 1.7-0.2 0.6 0.1 1.2 0.5 1.7 1 0.4 0.5 0.6 1.1 0.6 1.7 0.1 1.1-0.3 2.1-0.9 2.9 0-1-0.1-2-0.4-2.7-0.3-0.7-0.7-1.1-1.3-1.2-0.6-0.1-1.4 0-2.1 0.4-0.8 0.4-1.6 0.8-2.4 1.4z"/><path class="aj" d="m238.5 211.4l5-0.2q2.4-0.1 4.7-0.4c1.5-0.2 3-0.6 4.5-1 1.5-0.4 2.9-1.1 4.6-1.7-0.7 1.6-1.9 3.1-3.5 4.1-1.5 1-3.3 1.7-5.1 1.9-1.9 0.3-3.7 0.2-5.5-0.3-1.7-0.4-3.4-1.2-4.7-2.4z"/><path class="G" d="m236.1 193.1c0 0.4-0.4 0.8-0.8 0.8-0.5 0-0.9-0.4-0.9-0.8 0-0.5 0.4-0.9 0.9-0.9 0.4 0 0.8 0.4 0.8 0.9z"/><path class="G" d="m257.7 187.8c0 0.4-0.3 0.8-0.8 0.8-0.4 0-0.8-0.4-0.8-0.8 0-0.5 0.4-0.8 0.8-0.8 0.5 0 0.8 0.3 0.8 0.8z"/><path class="ak" d="m239.8 204.2c-0.4 2.2-3.3 3.4-6.3 2.8-3-0.6-5.1-2.9-4.6-5 0.4-2.2 3.2-3.4 6.3-2.8 3 0.6 5 2.9 4.6 5z"/><path class="ak" d="m258.7 199.5c1.2 1.5 3.6 1.7 5.3 0.3 1.8-1.4 2.1-3.8 0.8-5.4-1.2-1.5-3.6-1.7-5.3-0.3-1.8 1.4-2.1 3.8-0.8 5.4z"/><path class="a3" d="m249.8 163.4c-3-5.4-6.1-11.5-4.6-17.6-1.9 0.6-3.7 1.4-5.1 2.8-3.4 3.6-4.7 13-1 16.8 5 5 12 8.1 18.9 8.2 2.1 0 4.2-0.1 6.1-1 1.4-0.7 2.6-1.7 3.6-2.9-6.7 1.4-13.8-0.4-17.9-6.3z"/><path class="D" d="m266.7 149c-2.7-2.7-6.4-4.2-10.1-4.6-3.8-0.4-7.6 0.2-11.2 1.3q-0.1 0.1-0.2 0.1c-1.5 6.1 1.6 12.2 4.6 17.6 4.1 5.9 11.2 7.7 17.9 6.3 1.2-1.5 2-3.3 2.5-5.1 1.5-5.4 0.3-11.6-3.5-15.6z"/><path class="a3" d="m244.9 169.8c0 0 9.4-6.2 6.1-19.4 0 0 8.2 16.1-6.1 19.4z"/><path class="D" d="m248.3 166.8c3.1-3.7 4.6-8.6 3.7-13.3-0.9-4.7-4.5-8.5-8.8-10.4-9.1-4.1-14 4.7-14 4.7 0 0-11.8-6.3-26.2 3.8-2.8 1.9-11.4 9.8-13.8 25.5-1.1 6.7 2 25.2 9.9 35.2 4.9 6.2 10 10.8 8.1 22.3-1.1 6.7-12.6 28.7 9.8 32.2 3 0.4 6.2 0 8.9-1.4 4.7-2.2 7-7.4 8.7-12.2 7.5-21.9-11-52.3-17.1-57.9 6.4 0 13.7-14.1 14.4-17.1 0.5-2.2 2.2-6.7 2.2-6.7 0 0 4.9 0.3 6.8 0 3-0.6 5.5-2.5 7.4-4.7z"/><path class="B" d="m265.6 152.6c1.4 1.9 1.8 4.5 1.5 6.9-0.1 0.9-0.4 1.9-1 2.6-0.2 0.2-0.4 0.3-0.6 0.3-1.7 0-1.5-2.7-1.5-3.9-0.1-1.8-0.6-3.4-2-4.5-0.7-0.5-3.7-1.8-2.9-3.7 0.3-0.6 1.7-0.4 2.2-0.3 1.7 0.2 3.3 1.2 4.3 2.6z"/><path class="B" d="m198.7 185.3c0 0 0.1 0.2 0.1 0.2 0.5 1.4 4.1 1.5 4 0.1-0.1-1.4-0.3-2.9-0.4-4.4-0.4-7.4 2.7-14.6 8.4-19.6 1.3-1.2 5.6-5.8 2.8-7.8-2.3-1.7-6.1 1.5-7.3 2.6-5 4.7-8 10.9-8.7 17.5-0.4 3.7-0.1 7.6 1.1 11.4z"/><path class="B" d="m192.3 316.4c4.1 4.7 9.1 9.3 15.4 10 0.7 0 1.5 0.1 2.1-0.3 0.9-0.6 1.1-2 0.7-3-0.4-1-1.2-1.8-2.1-2.5-5.9-4.7-13.4-7-19.4-11.5-1.6-1.1-2.7-2.6-4.1-3.8-1.3 2.3 5.8 9.3 7.4 11.1z"/><g style="opacity:.7"><path class="a9" d="m130.6 500c0 0-15.8-134.6 26.4-168.4 0 0-27.4 65.3-9 168.4z"/></g><g style="opacity:.7"><path class="a9" d="m192.6 500c0 0-11.5-100.1-3.9-143.9 0 0 12.8 134.8 24.1 143.9z"/></g><path class="al" d="m173.2 225.8q1 2.3 2.2 4.5c0.5 1 1.1 2 1.8 2.7 1.2 1.2 2.9 1.8 4.6 1.6 1.1-0.1 2.3-0.7 2.7-1.7 0.3-0.6 0.3-1.2 0.2-1.9-0.1-5.4-1.2-13.8-6.8-16.5-2.2-1.1-4.6-0.6-5.9 1.6-1.7 3-0.1 6.9 1.2 9.7z"/><path class="al" d="m181 222.5q1.1 2.3 2.2 4.5c0.6 1 1.1 1.9 1.9 2.7 1.2 1.2 2.9 1.8 4.5 1.6 1.1-0.2 2.3-0.7 2.8-1.7 0.2-0.6 0.2-1.3 0.2-1.9-0.2-5.4-1.3-13.8-6.8-16.5-2.3-1.1-4.7-0.7-6 1.6-1.7 2.9-0.1 6.9 1.2 9.7z"/><path class="al" d="m188.6 221.7q1.1 2.3 2.2 4.6c0.6 1 1.1 1.9 1.9 2.7 1.2 1.1 2.9 1.7 4.5 1.6 1.2-0.2 2.3-0.7 2.8-1.7 0.2-0.6 0.2-1.3 0.2-1.9-0.2-5.4-1.3-13.8-6.8-16.5-2.3-1.1-4.7-0.7-6 1.6-1.7 2.9-0.1 6.9 1.2 9.6z"/><path class="al" d="m196.7 220.3q1 2.3 2.2 4.6c0.5 0.9 1.1 1.9 1.9 2.7 1.2 1.1 2.9 1.7 4.5 1.5 1.1-0.1 2.3-0.6 2.7-1.7 0.3-0.5 0.3-1.2 0.3-1.8-0.2-5.5-1.3-13.8-6.9-16.6-2.2-1.1-4.6-0.6-5.9 1.7-1.7 2.9-0.1 6.8 1.2 9.6z"/><path class="F" d="m195.1 211.6c1.2 0.7 2.2 1.9 3 3.1 0.7 1.2 1.3 2.5 1.8 3.8q0.6 2.1 0.7 4.3c0 0.7 0 1.4-0.1 2.1q-0.1 1-0.3 2.1c-0.2-0.7-0.3-1.4-0.5-2.1-0.2-0.6-0.3-1.3-0.4-2q-0.5-1.9-1.1-3.9c-0.4-1.2-0.8-2.5-1.3-3.7-0.5-1.3-1.1-2.5-1.8-3.7z"/><path class="F" d="m187.4 212.1c1.2 1 2.2 2.2 3.1 3.5q1.3 1.9 2.1 4.1c0.5 1.5 0.8 3.1 0.9 4.7 0.1 1.6-0.2 3.2-0.8 4.6-0.1-1.6-0.2-3-0.5-4.5q-0.5-2.1-1.2-4.2-0.7-2.1-1.7-4.1-0.9-2-1.9-4.1z"/><path class="F" d="m179.1 215.2c0.7 0.2 1.3 0.5 1.9 1q0.8 0.6 1.4 1.5c0.9 1.1 1.6 2.4 2 3.8 0.3 0.6 0.4 1.3 0.6 2q0.2 1 0.3 2.1 0 1 0 2c0 0.7-0.1 1.4-0.2 2.1-0.3-0.7-0.4-1.3-0.6-2-0.2-0.6-0.4-1.3-0.5-1.9-0.4-1.3-0.8-2.6-1.2-3.8q-0.6-1.9-1.5-3.6c-0.6-1.1-1.2-2.2-2.2-3.2z"/></svg>