<svg version="1.2" xmlns="http://www.w3.org/2000/svg" viewBox="0 0 220 200" width="450" height="409"><style>.a{opacity:.15}.b{fill:#fff;stroke:#333;stroke-width:3}.c{fill:#ff6a6a}</style><path fill-rule="evenodd" class="a" d="m38 134c-13.8 0-25-3.6-25-8 0-4.4 11.2-8 25-8 13.8 0 25 3.6 25 8 0 4.4-11.2 8-25 8z"/><path fill-rule="evenodd" class="a" d="m76 200c-13.8 0-25-3.6-25-8 0-4.4 11.2-8 25-8 13.8 0 25 3.6 25 8 0 4.4-11.2 8-25 8z"/><path fill-rule="evenodd" class="a" d="m152 194c-13.8 0-25-3.6-25-8 0-4.4 11.2-8 25-8 13.8 0 25 3.6 25 8 0 4.4-11.2 8-25 8z"/><path fill-rule="evenodd" class="a" d="m184 166c-13.8 0-25-3.6-25-8 0-4.4 11.2-8 25-8 13.8 0 25 3.6 25 8 0 4.4-11.2 8-25 8z"/><path fill-rule="evenodd" class="a" d="m96 152c-13.8 0-25-3.6-25-8 0-4.4 11.2-8 25-8 13.8 0 25 3.6 25 8 0 4.4-11.2 8-25 8z"/><path fill-rule="evenodd" class="b" d="m27 2h36c6.6 0 12 5.4 12 12v36c0 6.6-5.4 12-12 12h-36c-6.6 0-12-5.4-12-12v-36c0-6.6 5.4-12 12-12z"/><path fill-rule="evenodd" class="b" d="m79 46h36c6.6 0 12 5.4 12 12v36c0 6.6-5.4 12-12 12h-36c-6.6 0-12-5.4-12-12v-36c0-6.6 5.4-12 12-12z"/><path fill-rule="evenodd" class="b" d="m139 101h36c6.6 0 12 5.4 12 12v36c0 6.6-5.4 12-12 12h-36c-6.6 0-12-5.4-12-12v-36c0-6.6 5.4-12 12-12z"/><path fill-rule="evenodd" class="c" d="m175 121c-3.3 0-6-2.7-6-6 0-3.3 2.7-6 6-6 3.3 0 6 2.7 6 6 0 3.3-2.7 6-6 6z"/><path fill-rule="evenodd" class="b" d="m56 110h36c6.6 0 12 5.4 12 12v36c0 6.6-5.4 12-12 12h-36c-6.6 0-12-5.4-12-12v-36c0-6.6 5.4-12 12-12z"/><path fill-rule="evenodd" class="c" d="m57 163c-3.3 0-6-2.7-6-6 0-3.3 2.7-6 6-6 3.3 0 6 2.7 6 6 0 3.3-2.7 6-6 6z"/><path fill-rule="evenodd" class="b" d="m162 15h36c6.6 0 12 5.4 12 12v36c0 6.6-5.4 12-12 12h-36c-6.6 0-12-5.4-12-12v-36c0-6.6 5.4-12 12-12z"/><path fill-rule="evenodd" class="c" d="m75 147c-3.3 0-6-2.7-6-6 0-3.3 2.7-6 6-6 3.3 0 6 2.7 6 6 0 3.3-2.7 6-6 6z"/><path fill-rule="evenodd" class="c" d="m139 153c-3.3 0-6-2.7-6-6 0-3.3 2.7-6 6-6 3.3 0 6 2.7 6 6 0 3.3-2.7 6-6 6z"/><path fill-rule="evenodd" class="c" d="m91 133c-3.3 0-6-2.7-6-6 0-3.3 2.7-6 6-6 3.3 0 6 2.7 6 6 0 3.3-2.7 6-6 6z"/><path fill-rule="evenodd" class="c" d="m62 21c-3.3 0-6-2.7-6-6 0-3.3 2.7-6 6-6 3.3 0 6 2.7 6 6 0 3.3-2.7 6-6 6z"/><path fill-rule="evenodd" class="c" d="m96 83c-3.3 0-6-2.7-6-6 0-3.3 2.7-6 6-6 3.3 0 6 2.7 6 6 0 3.3-2.7 6-6 6z"/><path fill-rule="evenodd" class="c" d="m80 99c-3.3 0-6-2.7-6-6 0-3.3 2.7-6 6-6 3.3 0 6 2.7 6 6 0 3.3-2.7 6-6 6z"/><path fill-rule="evenodd" class="c" d="m113 68c-3.3 0-6-2.7-6-6 0-3.3 2.7-6 6-6 3.3 0 6 2.7 6 6 0 3.3-2.7 6-6 6z"/><path fill-rule="evenodd" class="c" d="m194 37c-3.3 0-6-2.7-6-6 0-3.3 2.7-6 6-6 3.3 0 6 2.7 6 6 0 3.3-2.7 6-6 6z"/><path fill-rule="evenodd" class="c" d="m46 37c-3.3 0-6-2.7-6-6 0-3.3 2.7-6 6-6 3.3 0 6 2.7 6 6 0 3.3-2.7 6-6 6z"/><path fill-rule="evenodd" class="c" d="m180 52c-3.3 0-6-2.7-6-6 0-3.3 2.7-6 6-6 3.3 0 6 2.7 6 6 0 3.3-2.7 6-6 6z"/><path fill-rule="evenodd" class="c" d="m164 68c-3.3 0-6-2.7-6-6 0-3.3 2.7-6 6-6 3.3 0 6 2.7 6 6 0 3.3-2.7 6-6 6z"/><path fill-rule="evenodd" class="c" d="m28 55c-3.3 0-6-2.7-6-6 0-3.3 2.7-6 6-6 3.3 0 6 2.7 6 6 0 3.3-2.7 6-6 6z"/><path fill-rule="evenodd" class="c" d="m157 136c-3.3 0-6-2.7-6-6 0-3.3 2.7-6 6-6 3.3 0 6 2.7 6 6 0 3.3-2.7 6-6 6z"/></svg>